<svg width="131" height="32" viewBox="0 0 131 32" fill="none" xmlns="http://www.w3.org/2000/svg">
<path d="M127.03 4.02048V11.4872H129.622V15.0974H127.03V21.8256C127.03 22.4821 127.191 22.9743 127.515 23.3025C127.839 23.6307 128.326 23.7949 128.974 23.7949C129.298 23.7949 130.837 23.7949 130.837 23.7949V28.0615C130.837 28.0615 128.001 28.0615 127.596 28.0615C126.3 28.0615 124.68 27.8154 123.546 26.7487C122.411 25.682 121.926 24.2872 121.926 22.3179V15.0154H119.576V11.4051H121.926V4.02048H127.03ZM111.88 28.3897C109.53 28.3897 107.505 27.5693 106.128 26.0923C104.669 24.6154 104.021 22.6461 104.021 20.3487V19.7744C104.021 17.2308 104.669 15.1795 105.966 13.5385C107.262 11.9795 109.125 11.159 111.556 11.159C113.743 11.159 115.525 11.8154 116.741 13.1282C118.037 14.5231 118.604 16.3282 118.604 18.6257V21.3333H109.288V21.4154C109.368 22.3179 109.773 22.8923 110.341 23.4667C110.907 24.041 111.718 24.2872 112.609 24.2872C113.581 24.2872 114.31 24.2051 114.877 24.041C115.444 23.8769 116.254 23.6308 117.065 23.2205L118.28 26.4205C117.551 26.9949 116.659 27.4051 115.525 27.8154C114.391 28.2257 113.095 28.3897 111.88 28.3897ZM111.475 15.0974C110.746 15.0974 110.179 15.3436 109.854 15.9179C109.53 16.4923 109.287 17.2308 109.206 18.0513L109.288 18.1333H113.662V17.7231C113.662 16.8205 113.5 16.2462 113.176 15.8359C112.69 15.2616 112.204 15.0974 111.475 15.0974ZM94.7859 28.3897C92.4365 28.3897 90.4109 27.5693 89.0339 26.0923C87.6569 24.6154 86.9275 22.6461 86.9275 20.3487V19.7744C86.9275 17.2308 87.5756 15.1795 88.8718 13.5385C90.1679 11.9795 92.0314 11.159 94.4616 11.159C96.6494 11.159 98.4315 11.8154 99.6469 13.1282C100.862 14.441 101.51 16.3282 101.51 18.6257V21.3333H92.1936V21.4154C92.2744 22.3179 92.6795 22.8923 93.2468 23.4667C93.8135 24.041 94.6238 24.2872 95.5148 24.2872C96.4873 24.2872 97.2162 24.2051 97.7834 24.041C98.3507 23.8769 99.1604 23.6308 99.9707 23.2205L101.186 26.4205C100.457 26.9949 99.5656 27.4051 98.4315 27.8154C97.3783 28.2257 96.0821 28.3897 94.7859 28.3897ZM94.4616 15.0974C93.7327 15.0974 93.1654 15.3436 92.8417 15.9179C92.5173 16.4923 92.2744 17.2308 92.1936 18.0513L92.2744 18.1333H96.6494V17.7231C96.6494 16.8205 96.4873 16.2462 96.1629 15.8359C95.677 15.2616 95.1911 15.0974 94.4616 15.0974ZM79.3125 21.0051L81.0947 11.3231H85.7121L81.9857 27.9795H77.692L75.0189 19.118H74.9375L72.2643 27.9795H67.9706L64.1629 11.4051H68.8617L70.6438 21.1692H70.7246L73.3175 11.4051H76.558L79.3125 21.0051ZM57.8436 23.3025C57.8436 22.8923 57.6006 22.4821 57.1147 22.1538C56.6288 21.8256 55.8185 21.4974 54.6031 21.2513C52.7399 20.841 51.2816 20.2667 50.3094 19.5282C49.3373 18.7077 48.8512 17.641 48.8512 16.2462C48.8512 14.7692 49.4993 13.5385 50.6335 12.4718C51.8487 11.4051 53.4691 10.9948 55.4942 10.9948C57.6006 10.9948 59.3827 11.4872 60.5981 12.4718C61.8943 13.4564 62.4616 14.6872 62.3802 16.3282V16.4102H57.5198C57.5198 15.7538 57.3576 15.2615 57.0333 14.9333C56.7096 14.6051 56.1423 14.441 55.4942 14.441C54.9274 14.441 54.5223 14.6051 54.1172 14.9333C53.7121 15.2615 53.5499 15.5898 53.5499 16.082C53.5499 16.5744 53.7929 16.9026 54.198 17.2308C54.6031 17.559 55.4942 17.8051 56.7096 18.0513C58.6538 18.4615 60.193 19.0359 61.084 19.7744C62.0565 20.5949 62.5424 21.6615 62.5424 23.1385C62.5424 24.6154 61.8943 25.8462 60.5981 26.8307C59.3019 27.8154 57.6006 28.3077 55.4942 28.3077C53.3069 28.3077 51.5247 27.7333 50.2284 26.5846C48.9322 25.4359 48.3651 24.2051 48.4461 22.7282V22.6461H53.064C53.064 23.4667 53.3069 24.041 53.7929 24.2872C54.2793 24.5333 54.9274 24.8616 55.6563 24.8616C56.3852 24.8616 56.8717 24.6974 57.1955 24.4513C57.6814 24.2051 57.8436 23.7949 57.8436 23.3025ZM35.808 11.3231L35.97 13.6205C36.5371 12.8 37.1853 12.1436 37.9144 11.7334C38.7245 11.241 39.5346 10.9948 40.5068 10.9948C42.0461 10.9948 43.3422 11.5692 44.2334 12.5539C45.1246 13.5385 45.6106 15.2615 45.6106 17.559V27.9795H40.6688V17.641C40.6688 16.6564 40.5068 16.082 40.1017 15.6718C39.6967 15.2615 39.1295 15.0974 38.4004 15.0974C37.9144 15.0974 37.5093 15.1795 37.1042 15.3436C36.6992 15.5077 36.3751 15.7538 36.132 16.082V28.0615H31.1092V11.4051H35.808V11.3231ZM28.0307 8.20515H22.9268V4.02048H28.0307V8.20515ZM28.0307 28.0615H22.9268V11.4051H28.0307V28.0615ZM11.747 28.0615V14.9333H9.39759V11.3231H11.747V9.6C11.747 7.71283 12.3141 6.23591 13.3672 5.16926C14.5014 4.10261 16.2027 3.85641 17.4179 3.85641C17.823 3.85641 20.6585 3.85641 20.6585 3.85641V8.04102C20.6585 8.04102 19.1192 8.04102 18.7952 8.04102C18.1471 8.04102 17.661 8.20515 17.3369 8.53334C17.0129 8.86154 16.8508 9.35386 16.8508 10.0103V11.241H20.0104V14.8513H16.8508V27.8974H11.747V28.0615ZM2.02534 5.41539C2.02534 0.41026 4.61776 0 8.99252 0V3.93848C6.96716 3.93848 6.15702 4.26667 6.15702 5.49745V11.9795C6.15702 13.4564 6.23805 15.0154 5.02283 16C6.23805 16.9846 6.15702 18.4615 6.15702 20.0205V26.5026C6.15702 27.8154 6.96716 28.0615 8.99252 28.0615V32C4.61776 32 2.02534 31.5897 2.02534 26.5846V20.0205C2.02534 18.9539 2.02534 17.8051 0 17.8051V16.082V14.359C2.02534 14.359 2.02534 13.1282 2.02534 12.1436V5.41539Z" fill="#232536"/>
</svg>
