<svg width="227" height="215" viewBox="0 0 227 215" fill="none" xmlns="http://www.w3.org/2000/svg">
<path fill-rule="evenodd" clip-rule="evenodd" d="M83.8164 0C88.0063 0.0178591 90.2046 3.28471 90.9897 4.36038C91.3547 5.44704 91.6577 6.54057 92.042 8.77571C92.0971 9.22357 92.1219 9.49695 92.1219 9.95579C92.1219 11.7788 91.6756 12.8187 90.9993 14.5154C90.4139 15.9839 90.1564 16.9085 89.0779 18.0748C87.5036 19.7715 86.3879 20.2839 85.9293 20.9048C85.7199 21.1974 84.1015 22.6935 83.6346 23.3776C83.1676 24.07 81.3468 26.9014 80.6126 28.4496C80.0107 29.719 80.0741 31.8278 77.9419 34.7663C77.0742 35.9697 76.3318 36.5645 75.8676 37.9768C75.4007 39.4014 75.409 40.3411 74.6487 41.6256C73.2506 43.972 71.9697 44.9858 70.8155 47.449C69.7081 49.8312 69.664 51.3725 68.923 53.8742C68.1365 56.4926 66.3335 57.5326 66.0594 60.2348C65.9121 61.5028 66.2041 62.2501 66.0594 63.5387C65.6393 67.4238 62.9397 68.8127 61.0073 72.2251C60.3048 73.4931 60.3048 74.4246 60.0652 75.867C59.747 77.8824 59.4068 78.9787 58.7663 80.9212C57.6768 84.188 57.7705 86.2322 57.1286 89.6103C56.7058 91.8262 56.4523 93.0943 56.086 95.3102C55.9028 96.4696 55.2155 97.0356 55.2155 98.2239L55.2265 99.3546C55.2265 100.124 54.7485 100.495 54.7058 101.272C54.5681 103.016 54.2568 103.973 54.0172 105.697C52.8299 114.402 51.2087 119.093 49.0945 127.619C48.3273 130.701 48.3452 132.535 47.6317 135.61C47.1001 137.903 46.5973 139.178 46.4155 141.534C46.2778 143.403 46.2971 144.443 46.1662 146.313C46.0106 148.458 46.2585 149.68 46.2585 151.833C46.2668 153.075 46.1579 153.778 46.0092 155.009C45.1222 162.026 43.5878 167.164 43.4308 173.006V176.84L42.8344 182.404V183.353C42.8523 186.309 40.1182 189.185 37.4833 189.185C33.9036 189.175 32.7603 185.436 32.1846 181.692C31.8265 179.337 31.4436 177.988 31.1048 175.623C30.9216 174.283 30.2811 173.688 29.9795 172.386C29.8872 171.93 29.9147 171.657 29.85 171.256C29.0705 167.613 28.2353 163.983 27.3446 160.367C26.4575 156.88 25.5058 150.385 25.3584 150.23C25.1766 150.046 24.7179 147.526 24.5182 145.047C24.3998 143.586 23.8585 142.043 23.7483 141.398C23.6491 140.682 23.9218 140.275 23.8047 139.564C23.4755 137.591 23.364 136.459 22.9246 134.525C22.4866 132.665 22.2566 131.686 21.9453 129.734V128.95C21.6988 125.537 20.6093 121.533 20.0046 116.767C19.7319 114.623 19.8407 113.363 19.6492 111.21C19.484 109.496 19.3559 107.175 18.5529 106.858C17.4455 106.428 17.0873 108.016 16.6741 108.846C15.7692 110.654 15.2403 111.658 14.48 113.547C13.4084 116.248 13.0324 117.854 11.8093 120.5C10.4457 123.429 9.94986 125.172 8.70748 128.164C7.73782 130.52 6.19242 132.626 3.94181 132.684C2.03829 132.726 0.0975905 130.619 0.00806198 128.869C-0.0855986 127.472 0.648535 124.341 1.60029 121.787C2.60577 119.115 3.36332 117.006 3.95007 114.826C4.56438 112.499 4.94866 111.841 5.58913 109.368C6.40315 106.155 7.65655 104.02 8.54357 100.826C9.58624 97.0576 10.611 95.3321 11.8479 91.6202C12.4236 89.8769 12.8354 88.6267 13.3106 86.838C13.5393 86 14.418 83.4695 14.9579 81.2715C15.378 79.5556 15.7072 77.7299 16.1659 76.918C17.0708 75.5497 18.6341 75.2021 20.2994 75.2131C23.8047 75.2131 26.1738 77.0375 26.2096 80.5063C26.2385 82.8142 25.8983 85.5536 26.3281 87.8959C26.357 89.4949 26.5925 88.8644 26.8308 90.4236C27.7936 96.5479 28.2219 97.3324 28.7164 102.158C29.328 104.942 29.7591 109.962 29.7591 109.962C29.7591 111.925 30.4905 115.3 30.9381 117.208C31.3582 119.086 30.9202 119.836 31.6158 122.772C32.1364 125.035 32.467 127.913 32.5317 128.686C32.6047 129.682 32.8512 131.581 33.0275 132.566C33.1432 133.284 33.292 134.837 33.7589 137.248C34.3154 138.897 34.1322 140.277 34.9021 142.038C35.0936 142.504 35.376 143.013 35.8897 143.013C36.3277 143.024 36.7409 142.337 37.0412 141.745C38.0659 139.828 37.975 138.616 38.7174 136.562C39.6513 133.988 40.0535 132.281 40.4557 129.773C41.1319 126.899 41.8275 121.442 43.1264 116.214C44.4445 110.929 44.9583 107.891 45.972 102.561C46.6772 98.9108 47.4265 96.7045 48.0601 93.2467C48.4333 91.6037 48.9182 90.6915 48.9099 88.9935C49.0476 88.0154 49.3314 87.4054 49.5215 86.3833C50.217 82.7593 50.8492 80.1683 51.1605 77.0732V76.216C51.323 75.5662 51.5627 74.0605 52.3767 72.4642C53.2279 69.8815 54.0502 68.5118 55.5047 66.2121C57.6658 62.79 57.3435 60.1537 58.6244 56.303C58.809 56.0104 59.7677 53.903 59.9784 52.2518C60.1795 52.0429 60.7208 50.8738 60.948 49.5124C61.4439 48.9492 63.5568 40.0677 65.0374 36.4835C65.1104 35.607 65.8625 34.4943 66.2647 33.2524C66.6228 32.0764 68.726 26.7187 69.7039 23.4436C70.529 20.7977 70.2714 19.0983 71.3609 16.5705C72.5303 13.8697 73.2465 10.8487 73.5289 9.35407C74.1983 7.69317 74.8456 6.83456 75.8814 5.35774C77.3621 3.23251 78.3138 1.85323 80.7283 0.902573C81.8578 0.47258 82.6277 0 83.8164 0ZM154.952 43.7467C157.604 43.7535 160.303 45.5257 160.202 48.173C160.111 50.2886 159.443 50.7104 158.983 51.4756C158.263 52.6625 158.54 54.6421 154.493 55.035C152.359 55.024 149.726 52.5883 149.726 49.8408C149.719 46.7388 151.832 43.7467 154.952 43.7467ZM181.256 52.8081C184.96 52.8177 186.836 56.4486 186.737 60.4725C186.729 60.8475 186.599 61.0494 186.599 61.4314C186.599 62.4534 186.747 63.0194 186.747 64.0415C186.747 64.9908 186.416 67.5172 186.416 67.5172C186.416 69.479 185.821 70.5574 185.821 72.5178C185.821 73.0741 185.985 73.3942 185.985 73.9506C185.985 75.073 185.821 75.7022 185.729 76.8246C185.5 79.579 187.375 79.7631 187.996 81.0311C189.325 81.6438 189.983 82.7923 191.501 82.7923C192.195 82.8019 194.329 81.8993 194.902 81.7056C197.676 80.4843 199.287 79.8276 201.958 78.4127C206.093 76.2393 207.795 74.4781 211.831 71.9614C214.492 70.2634 216.971 68.5846 220.138 68.5929C222.763 68.5929 225.225 70.545 225.964 72.3502C226.311 73.228 226.814 74.3504 226.814 75.5085C226.814 75.9275 227 76.1473 227 76.5594C227 77.1625 226.981 77.5169 226.916 78.1187C226.725 79.8263 226.76 80.8745 226.139 82.4626C225.49 84.1042 224.383 84.6991 222.908 85.6758C221.272 86.7886 219.933 87.3189 217.931 87.3189H216.879C215.477 87.3106 214.859 86.882 213.45 86.882C211.236 86.882 209.879 87.775 207.913 88.76C205.561 89.9181 202.891 91.4347 202.075 91.8276C199.77 92.9033 195.067 95.3953 190.749 97.9684C181.893 103.242 175.773 106.063 167.196 111.738C163.877 113.947 162.973 115.016 159.449 116.866C157.281 118.026 155.782 118.254 153.702 119.56C150.18 121.765 148.284 123.317 145.413 126.34C142.882 128.484 139.247 132.225 136.164 133.784C133.308 135.236 130.034 137.929 127.994 140.384C127.574 140.895 125.578 142.163 125.312 145.166L125.964 153.405C125.972 154.975 125.241 156.008 125.342 157.858L125.431 163.669C125.442 165.851 126.173 166.079 126.173 167.894L126.238 170.213C126.238 172.952 127.324 174.374 127.37 177.094C127.107 180.042 127.407 181.338 127.48 184.147C127.564 186.886 127.965 188.536 128.634 191.184C129.119 193.165 128.954 194.242 129.82 196.058C131.076 198.768 131.633 200.272 132.979 202.949C133.874 204.736 134.426 206.204 134.426 208.205C134.434 212.109 131.305 214.545 127.107 214.984C126.731 215.028 123.52 215.039 122.21 214.172C120.574 213.05 120.115 210.932 120.015 208.97C119.896 206.242 119.958 205.221 119.504 202.436C119.531 200.995 119.154 200.201 118.781 198.83C117.947 195.721 117.363 193.941 117.288 190.73C117.206 186.603 117.538 184.279 117.538 180.144C117.363 177.417 117.151 175.874 116.822 173.164C116.472 170.481 115.953 168.919 115.633 166.247C115.085 161.731 115.085 159.201 114.826 154.657C114.745 153.542 114.745 152.95 114.627 151.845C114.607 150.477 114.022 149.82 113.117 149.811C111.24 149.811 110.446 151.179 108.817 152.104C106.554 153.362 105.393 154.576 103.481 156.318C99.6202 159.147 98.0087 160.769 94.8876 164.156C92.8326 166.383 91.8629 167.888 89.582 169.886C87.7432 171.492 86.5449 172.278 84.7902 173.966C83.3426 175.344 82.8495 176.455 81.7435 178.146C80.7449 179.644 79.7959 180.243 78.4323 181.431C73.4807 185.775 72.5289 185.611 66.4189 193.323C64.6242 195.592 63.3006 195.904 62.8502 196.651C62.7607 196.805 60.7373 198.459 60.0059 199.182C58.9991 200.185 57.4523 201.663 56.5735 202.357C54.6273 203.916 53.9221 205.312 52.0462 206.964C49.914 208.824 48.578 209.967 45.8604 210.86C44.5974 211.272 44.1057 211.727 42.76 211.727C39.9791 211.727 38.0838 209.099 38.077 206.325C38.077 204.566 38.9557 203.908 39.9984 202.502C42.0107 199.782 43.3729 198.368 45.9169 196.168C50.0903 192.511 51.5641 189.425 56.192 186.351C57.8022 185.285 61.8447 183.058 62.9425 182.216C64.803 180.79 66.4869 179.149 67.9588 177.326C68.6076 176.494 69.3389 176.275 69.9615 175.417C70.6199 174.496 70.8403 173.822 71.6185 172.981C73.3732 171.085 74.7093 170.309 76.8414 168.823C79.614 166.887 81.1884 166.028 83.8122 163.884C85.68 162.367 86.494 161.052 87.9857 159.183C90.9497 155.497 93.7306 154.512 97.5735 151.72C99.3571 150.425 99.926 149.173 101.316 147.467C102.076 146.525 104.616 143.269 107.154 141.041C108.844 139.554 109.88 138.788 111.591 137.308C114.534 134.771 115.57 135.684 115.497 131.796C115.497 131.12 115.678 130.192 114.671 130.265C113.74 130.348 113.493 131.131 112.806 131.741C111.358 133.02 110.466 133.651 108.532 133.621C104.59 133.549 102.093 130.038 101.973 129.799C100.854 127.6 99.0528 120.911 98.9798 118.849C98.9798 118.849 98.853 116.072 98.9798 114.495C99.1271 112.514 99.6395 108.901 100.875 106.748C101.553 105.561 102.164 100.852 102.998 96.5095C103.298 94.9296 104.177 93.3237 104.69 91.7905C105.422 89.5815 105.777 88.2393 107.113 86.3243C109.475 82.9571 110.782 79.1504 114.909 79.1696C115.832 79.1696 116.255 79.3977 117.088 79.7988C117.618 80.0832 118.212 80.1821 118.533 80.6753C118.815 81.1231 118.552 81.5229 118.982 81.8512C119.759 82.4543 120.114 83.6866 120.114 84.9093C120.114 85.6099 120.114 86.022 120.033 86.7075C119.723 89.4812 118.04 90.6022 116.29 92.7838C114.596 94.9104 114.184 95.6028 113.116 98.1058C112.247 100.14 112.034 102.246 111.606 104.42C111.103 106.983 110.661 109.265 110.488 111.037C110.426 111.6 110.361 112.076 110.361 112.661C110.361 113.308 110.846 114.503 111.493 114.503C112.518 114.503 113.435 113.282 113.782 112.315C114.606 110.069 115.238 108.966 115.806 106.637C116.638 103.315 117.177 101.847 118.476 99.0262C120.093 95.5423 120.26 93.3237 121.202 90.4676C122.337 87.0276 123.316 83.8514 126.957 83.8707C128.119 83.8707 128.878 83.8789 129.884 84.4642C132.165 85.7322 132.729 87.8931 132.729 90.4964C132.704 91.2919 132.687 91.7644 132.603 92.5585C131.761 100.342 129.819 104.541 129.178 112.378C129.09 113.483 129.178 114.139 129.082 115.245C128.915 117.208 128.466 118.273 128.477 120.254C128.477 121.14 128.669 121.63 128.926 122.463C129.053 122.907 129.2 123.427 129.666 123.427C130.572 123.427 130.958 122.78 131.715 122.297C133.189 121.376 134.185 121.066 135.633 120.117C137.874 118.648 139.319 118.054 141.478 116.484C143.685 114.878 145.941 112.394 148.227 110.918C150.471 109.472 150.753 109.841 153.15 108.336C156.06 106.5 157.815 105.553 160.562 103.488C162.208 102.229 162.272 101.344 164.654 100.013C166.94 98.7171 168.267 98.0234 170.488 96.6262C171.677 95.8789 172.272 95.3047 173.536 94.7194C174.589 94.2276 175.631 93.7523 175.631 92.5928C175.62 91.4333 174.9 90.7588 174.302 89.7724C173.452 88.3506 173.297 87.5744 173.288 85.9204C173.288 85.1002 173.259 84.4793 173.39 83.6756C173.91 80.4555 175.163 78.7588 175.155 75.5016L175.254 74.441C175.098 74.3215 175.017 74.1773 174.816 74.1773C174.359 74.1773 174.093 74.7625 173.81 75.1087C172.966 76.0759 172.492 76.6789 171.677 77.6639C170.587 78.9498 169.885 79.6422 169.151 81.141C168.722 81.9611 168.795 82.545 168.457 83.4036C167.706 85.2747 167.167 86.3861 166.543 88.3039C164.833 93.4514 164.954 100.267 159.501 100.257C155.923 100.249 153.012 97.412 153.004 93.8416C153.004 91.7809 153.591 88.6432 153.846 88.4124C154.723 87.6747 154.018 85.7047 154.531 85.2458C154.961 84.8914 155.127 83.0835 155.127 81.3141C155.127 80.4912 155.355 80.0076 155.355 79.1957L155.446 77.8741C155.446 76.3863 155.914 75.6115 156.132 74.1498C156.573 71.1852 157.348 70.4626 157.595 69.615C157.732 69.1231 157.697 68.8937 157.872 68.4101C158.829 65.7203 158.611 64.1212 161.245 61.9053C162.19 60.9656 162.783 59.9628 164.118 59.9628C167.2 59.9697 168.053 61.724 168.848 61.6498C170.293 61.5055 170.771 60.401 171.797 59.3968C174.907 56.4212 176.901 52.7971 181.256 52.8081ZM146.798 71.7896C149.736 71.7896 152.646 72.8763 152.566 76.624C152.529 78.844 151.366 79.9197 150.578 81.9735C149.919 83.6701 150.259 84.8186 149.804 86.5812C149.105 89.201 148.001 88.9276 148.156 93.3608C148.212 96.6839 148.201 98.5619 148.091 101.884C147.961 105.078 145.328 107.331 142.116 107.379C139.327 107.432 136.472 104.13 136.48 101.347C136.48 99.3573 137.047 98.2885 137.168 96.2993C137.259 94.5656 137.131 93.5902 137.25 91.8661C137.422 88.9276 138.229 87.3573 139.144 84.5562C139.601 83.1701 139.572 82.2661 140.104 80.9061C140.865 78.9168 141.083 77.7931 142.263 75.8698C142.773 73.6951 144.412 71.7787 146.798 71.7896ZM66.682 82.1287C68.4478 82.1287 69.7081 82.9956 70.635 84.5177C71.54 86.0165 72.3071 86.9452 72.3071 88.6981C72.3071 89.0086 72.2162 89.1831 72.2162 89.4826C72.2342 92.4925 69.7081 94.8678 66.6889 94.8678C63.6807 94.8458 61.4838 91.774 61.4921 89.146C61.4921 88.0951 62.1422 87.4288 62.2524 86.2789C62.5361 83.5698 64.2744 82.1177 66.682 82.1287ZM88.7666 90.2478C91.8574 90.2588 93.2307 92.7961 94.7499 95.486C96.2416 98.0962 97.9068 99.5112 97.9068 102.485C97.9068 105.479 95.9482 106.976 93.6342 108.882C92.3243 109.968 91.1811 109.74 89.4608 110.261C88.673 110.499 88.5104 111.565 88.4085 112.514C88.2267 114.25 88.0972 115.226 88.0614 116.95C87.9884 119.835 88.0903 121.467 88.0972 124.34C87.797 125.939 88.0614 127.014 87.3121 128.431C86.1138 130.701 84.2172 131.825 81.6401 131.814C78.6471 131.814 76.0853 129.453 76.139 126.461C76.1486 125.573 76.526 122.883 76.4792 120.584C76.3965 117.097 76.1211 115.117 76.1128 111.624C76.1032 109.88 76.891 108.949 76.891 107.188V105.718C76.8442 104.44 78.0962 103.282 79.4074 102.242C81.282 100.745 82.0685 99.0757 82.9473 96.8405C84.4018 93.1492 85.2061 90.2478 88.7666 90.2478ZM66.7068 104.056C68.2081 104.075 69.2398 104.612 70.1199 105.8C71.5468 107.735 72.4352 109.169 72.4435 111.558C72.4435 112.077 72.4077 112.36 72.3609 112.871C72.1253 114.833 71.4931 115.894 70.4408 117.561C69.7811 118.62 69.7645 119.442 69.2398 120.601C68.2522 122.709 67.6682 124.662 67.5856 126.341C67.4836 129.8 67.4382 131.752 67.5208 135.21C67.5566 136.937 67.9616 137.893 67.9616 139.608C67.9795 143.204 65.8666 146.853 62.2607 146.853C58.6919 146.864 55.2898 142.153 55.4717 137.188C55.5543 135.401 55.838 134.416 56.1658 132.665C56.6975 129.918 57.1272 126.805 57.6314 125.619C58.3159 124.048 58.2718 123.484 58.3999 123.001L58.8118 120.165C58.8118 119.002 59.2677 118.758 59.4605 117.616C59.8544 115.172 60.1368 113.811 60.9246 111.448C61.3998 109.989 62.0692 109.324 62.572 107.891C63.3116 105.825 64.5127 104.056 66.7068 104.056Z" fill="white"/>
</svg>
