<svg width="135" height="34" viewBox="0 0 135 34" fill="none" xmlns="http://www.w3.org/2000/svg">
<path d="M6.28369 0.822754C2.83057 0.822754 0.672363 3.20508 0.672363 7.01514C0.672363 10.8252 2.83057 13.1992 6.28369 13.1992C9.72852 13.1992 11.895 10.8252 11.895 7.01514C11.895 3.20508 9.72852 0.822754 6.28369 0.822754ZM6.28369 2.45801C8.55811 2.45801 9.98584 4.21777 9.98584 7.01514C9.98584 9.8042 8.55811 11.564 6.28369 11.564C4.00928 11.564 2.57324 9.8042 2.57324 7.01514C2.57324 4.21777 4.00928 2.45801 6.28369 2.45801Z" fill="white"/>
<path d="M13.4888 13H15.29V7.79541C15.29 6.37598 16.1035 5.42969 17.4648 5.42969C18.7847 5.42969 19.4155 6.19336 19.4155 7.56299V13H21.2168V7.22266C21.2168 5.14746 20.0796 3.88574 18.0874 3.88574C16.6929 3.88574 15.7881 4.44189 15.2402 5.50439H15.207V3.98535H13.4888V13Z" fill="white"/>
<path d="M23.0928 13H24.894V0.482422H23.0928V13Z" fill="white"/>
<path d="M27.7246 16.2788C29.5674 16.2788 30.4224 15.5815 31.1943 13.415L34.5728 3.98535H32.6802L30.3643 11.3564H30.3228L28.0068 3.98535H26.0728L29.3433 13.0249L29.2021 13.4897C28.895 14.4443 28.4219 14.8096 27.5669 14.8096C27.4092 14.8096 27.127 14.8013 26.9941 14.7681V16.229C27.1353 16.2539 27.5752 16.2788 27.7246 16.2788Z" fill="white"/>
<path d="M44.2349 3.89404C42.9814 3.89404 41.8691 4.5083 41.3628 5.47949H41.3213V3.98535H39.5864V15.9883H41.3877V11.5225H41.4209C41.9604 12.5186 42.9814 13.0913 44.2764 13.0913C46.5425 13.0913 48.0449 11.2817 48.0449 8.49268C48.0449 5.69531 46.5342 3.89404 44.2349 3.89404ZM43.7783 11.564C42.3423 11.564 41.3794 10.3354 41.3711 8.49268C41.3794 6.6582 42.3506 5.42139 43.7783 5.42139C45.2393 5.42139 46.2021 6.6333 46.2021 8.49268C46.2021 10.3604 45.2393 11.564 43.7783 11.564Z" fill="white"/>
<path d="M53.2329 5.33838C54.5444 5.33838 55.4326 6.26807 55.4741 7.6709H50.9004C51 6.28467 51.938 5.33838 53.2329 5.33838ZM55.4658 10.3604C55.2168 11.1489 54.395 11.647 53.3491 11.647C51.8716 11.647 50.8921 10.6177 50.8921 9.05713V8.94922H57.2754V8.31836C57.2754 5.5874 55.7148 3.86914 53.2412 3.86914C50.7178 3.86914 49.0742 5.70361 49.0742 8.52588C49.0742 11.3481 50.7012 13.1079 53.3159 13.1079C55.3413 13.1079 56.9268 11.979 57.1841 10.3604H55.4658Z" fill="white"/>
<path d="M58.728 13H60.5293V7.62109C60.5293 6.35107 61.2764 5.5293 62.4634 5.5293C62.8203 5.5293 63.1357 5.5791 63.2852 5.63721V3.95215C63.144 3.91895 62.9199 3.89404 62.6543 3.89404C61.5918 3.89404 60.7617 4.5 60.4795 5.50439H60.4463V3.98535H58.728V13Z" fill="white"/>
<path d="M64.2896 6.55029C64.2896 7.79541 65.0947 8.62549 66.7217 9.02393L68.332 9.42236C69.2783 9.66309 69.6353 9.96191 69.6353 10.5347C69.6353 11.2651 68.9297 11.73 67.8091 11.73C66.6636 11.73 65.9663 11.2568 65.8252 10.3936H64.0488C64.1816 12.0205 65.6177 13.1079 67.7178 13.1079C69.9009 13.1079 71.4282 11.9956 71.4282 10.3853C71.4282 9.05713 70.7559 8.40137 68.938 7.96143L67.4438 7.60449C66.4893 7.37207 66.041 6.99854 66.041 6.45068C66.041 5.73682 66.7217 5.26367 67.7427 5.26367C68.772 5.26367 69.4609 5.76172 69.5356 6.55859H71.229C71.1875 4.98975 69.7598 3.87744 67.7842 3.87744C65.709 3.87744 64.2896 4.96484 64.2896 6.55029Z" fill="white"/>
<path d="M76.749 13.1079C79.3555 13.1079 81.0073 11.3315 81.0073 8.49268C81.0073 5.65381 79.3472 3.86914 76.749 3.86914C74.1509 3.86914 72.4824 5.66211 72.4824 8.49268C72.4824 11.3315 74.1426 13.1079 76.749 13.1079ZM76.749 11.6138C75.2217 11.6138 74.3086 10.46 74.3086 8.49268C74.3086 6.53369 75.2217 5.36328 76.749 5.36328C78.2764 5.36328 79.1812 6.52539 79.1812 8.49268C79.1812 10.46 78.2764 11.6138 76.749 11.6138Z" fill="white"/>
<path d="M82.4517 13H84.2529V7.79541C84.2529 6.37598 85.0664 5.42969 86.4277 5.42969C87.7476 5.42969 88.3784 6.19336 88.3784 7.56299V13H90.1797V7.22266C90.1797 5.14746 89.0425 3.88574 87.0503 3.88574C85.6558 3.88574 84.751 4.44189 84.2031 5.50439H84.1699V3.98535H82.4517V13Z" fill="white"/>
<path d="M91.8315 6.55029C91.8315 7.79541 92.6367 8.62549 94.2637 9.02393L95.874 9.42236C96.8203 9.66309 97.1772 9.96191 97.1772 10.5347C97.1772 11.2651 96.4717 11.73 95.3511 11.73C94.2056 11.73 93.5083 11.2568 93.3672 10.3936H91.5908C91.7236 12.0205 93.1597 13.1079 95.2598 13.1079C97.4429 13.1079 98.9702 11.9956 98.9702 10.3853C98.9702 9.05713 98.2979 8.40137 96.48 7.96143L94.9858 7.60449C94.0312 7.37207 93.583 6.99854 93.583 6.45068C93.583 5.73682 94.2637 5.26367 95.2847 5.26367C96.314 5.26367 97.0029 5.76172 97.0776 6.55859H98.771C98.7295 4.98975 97.3018 3.87744 95.3262 3.87744C93.251 3.87744 91.8315 4.96484 91.8315 6.55029Z" fill="white"/>
<path d="M116.186 3.98535H114.41L112.733 11.124H112.7L110.782 3.98535H109.056L107.146 11.124H107.113L105.437 3.98535H103.644L106.134 13H107.985L109.886 6.20996H109.927L111.845 13H113.704L116.186 3.98535Z" fill="white"/>
<path d="M117.398 13H119.199V3.98535H117.398V13ZM118.303 2.69873C118.884 2.69873 119.357 2.23389 119.357 1.66113C119.357 1.07178 118.884 0.623535 118.303 0.623535C117.722 0.623535 117.249 1.07178 117.249 1.66113C117.249 2.23389 117.722 2.69873 118.303 2.69873Z" fill="white"/>
<path d="M121.656 1.95996V3.98535H120.411V5.40479H121.656V10.626C121.656 12.3691 122.354 13.0581 124.155 13.0581C124.545 13.0581 124.968 13.0166 125.167 12.9668V11.5474C125.051 11.564 124.744 11.5889 124.553 11.5889C123.798 11.5889 123.449 11.2236 123.449 10.4434V5.40479H125.176V3.98535H123.449V1.95996H121.656Z" fill="white"/>
<path d="M126.77 13H128.571V7.83691C128.571 6.39258 129.417 5.42969 130.82 5.42969C132.14 5.42969 132.812 6.24316 132.812 7.58789V13H134.614V7.23926C134.614 5.20557 133.427 3.88574 131.443 3.88574C130.065 3.88574 129.135 4.44189 128.596 5.50439H128.554V0.482422H126.77V13Z" fill="white"/>
<path d="M8.62451 27.0649C8.4668 25.3301 7.03906 23.8691 4.73975 23.8691C2.19141 23.8691 0.514648 25.687 0.514648 28.4927C0.514648 31.3481 2.19971 33.1079 4.75635 33.1079C6.92285 33.1079 8.43359 31.8545 8.64111 29.9702H6.92285C6.70703 31.0244 5.93506 31.5972 4.76465 31.5972C3.32031 31.5972 2.34082 30.4351 2.34082 28.4927C2.34082 26.6001 3.30371 25.3882 4.75635 25.3882C5.99316 25.3882 6.74023 26.1104 6.90625 27.0649H8.62451Z" fill="white"/>
<path d="M9.96924 33H11.7705V27.6211C11.7705 26.3511 12.5176 25.5293 13.7046 25.5293C14.0615 25.5293 14.377 25.5791 14.5264 25.6372V23.9521C14.3853 23.9189 14.1611 23.894 13.8955 23.894C12.833 23.894 12.0029 24.5 11.7207 25.5044H11.6875V23.9854H9.96924V33Z" fill="white"/>
<path d="M19.0503 25.3384C20.3618 25.3384 21.25 26.2681 21.2915 27.6709H16.7178C16.8174 26.2847 17.7554 25.3384 19.0503 25.3384ZM21.2832 30.3604C21.0342 31.1489 20.2124 31.647 19.1665 31.647C17.689 31.647 16.7095 30.6177 16.7095 29.0571V28.9492H23.0928V28.3184C23.0928 25.5874 21.5322 23.8691 19.0586 23.8691C16.5352 23.8691 14.8916 25.7036 14.8916 28.5259C14.8916 31.3481 16.5186 33.1079 19.1333 33.1079C21.1587 33.1079 22.7441 31.979 23.0015 30.3604H21.2832Z" fill="white"/>
<path d="M27.6748 31.6553C26.6372 31.6553 25.9648 31.1572 25.9648 30.3853C25.9648 29.5884 26.604 29.1318 27.8325 29.0571L30.0239 28.9077V29.6133C30.0239 30.8003 29.0112 31.6553 27.6748 31.6553ZM27.1934 33.0913C28.4219 33.0913 29.5425 32.4771 30.0405 31.4976H30.082V33H31.8003V26.8159C31.8003 25.0312 30.3809 23.8691 28.1812 23.8691C26.1558 23.8691 24.645 25.0479 24.5952 26.6416H26.2803C26.438 25.8613 27.1519 25.355 28.1313 25.355C29.335 25.355 30.0239 25.9194 30.0239 26.9487V27.646L27.5918 27.7871C25.3672 27.9282 24.147 28.8413 24.147 30.4185C24.147 32.0288 25.3921 33.0913 27.1934 33.0913Z" fill="white"/>
<path d="M34.1494 21.96V23.9854H32.9043V25.4048H34.1494V30.626C34.1494 32.3691 34.8467 33.0581 36.6479 33.0581C37.0381 33.0581 37.4614 33.0166 37.6606 32.9668V31.5474C37.5444 31.564 37.2373 31.5889 37.0464 31.5889C36.291 31.5889 35.9424 31.2236 35.9424 30.4434V25.4048H37.6689V23.9854H35.9424V21.96H34.1494Z" fill="white"/>
<path d="M39.2544 33H41.0557V23.9854H39.2544V33ZM40.1592 22.6987C40.7402 22.6987 41.2134 22.2339 41.2134 21.6611C41.2134 21.0718 40.7402 20.6235 40.1592 20.6235C39.5781 20.6235 39.105 21.0718 39.105 21.6611C39.105 22.2339 39.5781 22.6987 40.1592 22.6987Z" fill="white"/>
<path d="M50.6265 23.9854H48.7588L46.4512 31.2236H46.4097L44.1104 23.9854H42.2095L45.4634 33H47.3809L50.6265 23.9854Z" fill="white"/>
<path d="M55.2085 25.3384C56.52 25.3384 57.4082 26.2681 57.4497 27.6709H52.876C52.9756 26.2847 53.9136 25.3384 55.2085 25.3384ZM57.4414 30.3604C57.1924 31.1489 56.3706 31.647 55.3247 31.647C53.8472 31.647 52.8677 30.6177 52.8677 29.0571V28.9492H59.251V28.3184C59.251 25.5874 57.6904 23.8691 55.2168 23.8691C52.6934 23.8691 51.0498 25.7036 51.0498 28.5259C51.0498 31.3481 52.6768 33.1079 55.2915 33.1079C57.3169 33.1079 58.9023 31.979 59.1597 30.3604H57.4414Z" fill="white"/>
<path d="M64.6216 33H66.4229V27.4717C66.4229 26.293 67.2197 25.4297 68.332 25.4297C69.3862 25.4297 70.0586 26.0938 70.0586 27.1396V33H71.8267V27.4053C71.8267 26.2515 72.6069 25.4297 73.7109 25.4297C74.8315 25.4297 75.4707 26.1104 75.4707 27.2891V33H77.2637V26.8574C77.2637 25.0562 76.1016 23.8857 74.3252 23.8857C73.0386 23.8857 71.9761 24.5498 71.5029 25.6372H71.4614C71.0962 24.5166 70.1914 23.8857 68.938 23.8857C67.7593 23.8857 66.7881 24.5 66.373 25.5127H66.3398V23.9854H64.6216V33Z" fill="white"/>
<path d="M79.1313 33H80.9326V23.9854H79.1313V33ZM80.0361 22.6987C80.6172 22.6987 81.0903 22.2339 81.0903 21.6611C81.0903 21.0718 80.6172 20.6235 80.0361 20.6235C79.4551 20.6235 78.9819 21.0718 78.9819 21.6611C78.9819 22.2339 79.4551 22.6987 80.0361 22.6987Z" fill="white"/>
<path d="M82.8501 33H84.6514V27.7954C84.6514 26.376 85.4648 25.4297 86.8262 25.4297C88.146 25.4297 88.7769 26.1934 88.7769 27.563V33H90.5781V27.2227C90.5781 25.1475 89.4409 23.8857 87.4487 23.8857C86.0542 23.8857 85.1494 24.4419 84.6016 25.5044H84.5684V23.9854H82.8501V33Z" fill="white"/>
<path d="M95.7744 33.0913C97.0942 33.0913 98.1235 32.4937 98.6548 31.4727H98.688V33H100.431V20.4824H98.6382V25.4795H98.5967C98.082 24.4834 97.0527 23.894 95.7578 23.894C93.5166 23.894 91.9727 25.7119 91.9727 28.4844C91.9727 31.2734 93.5166 33.0913 95.7744 33.0913ZM96.231 25.4214C97.6753 25.4214 98.6465 26.6582 98.6465 28.4927C98.6465 30.3354 97.6753 31.564 96.231 31.564C94.77 31.564 93.8154 30.3604 93.8154 28.4927C93.8154 26.6333 94.7783 25.4214 96.231 25.4214Z" fill="white"/>
<path d="M103.652 33.0913C104.266 33.0913 104.739 32.6099 104.739 32.0039C104.739 31.3896 104.266 30.9165 103.652 30.9165C103.046 30.9165 102.564 31.3896 102.564 32.0039C102.564 32.6099 103.046 33.0913 103.652 33.0913Z" fill="white"/>
</svg>
