<svg width="58" height="12" viewBox="0 0 58 12" fill="none" xmlns="http://www.w3.org/2000/svg">
<path d="M2.1958 1.75684H4.61963C5.98096 1.75684 6.81104 2.53711 6.81104 3.79883C6.81104 5.09375 6.03076 5.84912 4.66943 5.84912H2.1958V1.75684ZM2.1958 7.49268H4.56982L6.91895 12H9.36768L6.75293 7.16895C8.18066 6.6543 9.01074 5.33447 9.01074 3.74902C9.01074 1.45801 7.4585 0.0219727 4.86865 0.0219727H0.0541992V12H2.1958V7.49268Z" fill="black"/>
<path d="M18.5732 12H20.8311L16.5811 0.0219727H14.1655L9.91553 12H12.1235L13.1445 8.90381H17.5522L18.5732 12ZM15.3193 2.13867H15.3774L17.0459 7.25195H13.6426L15.3193 2.13867Z" fill="black"/>
<path d="M24.2593 12V7.11084H29.2812V5.36768H24.2593V1.83154H29.7544V0.0219727H22.1177V12H24.2593Z" fill="black"/>
<path d="M33.4565 12V7.11084H38.4785V5.36768H33.4565V1.83154H38.9517V0.0219727H31.3149V12H33.4565Z" fill="black"/>
<path d="M48.0908 10.1904H42.6538V0.0219727H40.5122V12H48.0908V10.1904Z" fill="black"/>
<path d="M57.3794 10.1904H51.7681V6.77051H57.0723V5.06885H51.7681V1.83154H57.3794V0.0219727H49.6265V12H57.3794V10.1904Z" fill="black"/>
</svg>
