<svg width="336" height="78" viewBox="0 0 336 78" fill="none" xmlns="http://www.w3.org/2000/svg">
<g opacity="0.7">
<path d="M2.78906 2.19531H5.25781C6.60938 2.19531 7.4375 2.96094 7.4375 4.21875C7.4375 5.50781 6.65625 6.25 5.30469 6.25H2.78906V2.19531ZM2.78906 7.66406H5.25781L7.55469 12H9.57812L7.04688 7.39062C8.42188 6.92969 9.23438 5.69531 9.23438 4.17188C9.23438 2.07031 7.78906 0.726562 5.46875 0.726562H1.03906V12H2.78906V7.66406Z" fill="white"/>
<path d="M10.8203 12H12.5156V3.51562H10.8203V12ZM11.6719 2.30469C12.2188 2.30469 12.6641 1.86719 12.6641 1.32812C12.6641 0.773438 12.2188 0.351562 11.6719 0.351562C11.125 0.351562 10.6797 0.773438 10.6797 1.32812C10.6797 1.86719 11.125 2.30469 11.6719 2.30469Z" fill="white"/>
<path d="M21.5703 6.41406C21.4219 4.78125 20.0781 3.40625 17.9141 3.40625C15.5156 3.40625 13.9375 5.11719 13.9375 7.75781C13.9375 10.4453 15.5234 12.1016 17.9297 12.1016C19.9688 12.1016 21.3906 10.9219 21.5859 9.14844H19.9688C19.7656 10.1406 19.0391 10.6797 17.9375 10.6797C16.5781 10.6797 15.6562 9.58594 15.6562 7.75781C15.6562 5.97656 16.5625 4.83594 17.9297 4.83594C19.0938 4.83594 19.7969 5.51562 19.9531 6.41406H21.5703Z" fill="white"/>
<path d="M22.9062 12H24.6016V7.14062C24.6016 5.78125 25.3984 4.875 26.7188 4.875C27.9609 4.875 28.5938 5.64062 28.5938 6.90625V12H30.2891V6.57812C30.2891 4.66406 29.1719 3.42188 27.3047 3.42188C26.0078 3.42188 25.1328 3.94531 24.625 4.94531H24.5859V0.21875H22.9062V12Z" fill="white"/>
<path d="M34.9375 10.7344C33.9609 10.7344 33.3281 10.2656 33.3281 9.53906C33.3281 8.78906 33.9297 8.35938 35.0859 8.28906L37.1484 8.14844V8.8125C37.1484 9.92969 36.1953 10.7344 34.9375 10.7344ZM34.4844 12.0859C35.6406 12.0859 36.6953 11.5078 37.1641 10.5859H37.2031V12H38.8203V6.17969C38.8203 4.5 37.4844 3.40625 35.4141 3.40625C33.5078 3.40625 32.0859 4.51562 32.0391 6.01562H33.625C33.7734 5.28125 34.4453 4.80469 35.3672 4.80469C36.5 4.80469 37.1484 5.33594 37.1484 6.30469V6.96094L34.8594 7.09375C32.7656 7.22656 31.6172 8.08594 31.6172 9.57031C31.6172 11.0859 32.7891 12.0859 34.4844 12.0859Z" fill="white"/>
<path d="M40.5234 12H42.2188V6.9375C42.2188 5.74219 42.9219 4.96875 44.0391 4.96875C44.375 4.96875 44.6719 5.01562 44.8125 5.07031V3.48438C44.6797 3.45312 44.4688 3.42969 44.2188 3.42969C43.2188 3.42969 42.4375 4 42.1719 4.94531H42.1406V3.51562H40.5234V12Z" fill="white"/>
<path d="M48.7344 12.0859C49.9766 12.0859 50.9453 11.5234 51.4453 10.5625H51.4766V12H53.1172V0.21875H51.4297V4.92188H51.3906C50.9062 3.98438 49.9375 3.42969 48.7188 3.42969C46.6094 3.42969 45.1562 5.14062 45.1562 7.75C45.1562 10.375 46.6094 12.0859 48.7344 12.0859ZM49.1641 4.86719C50.5234 4.86719 51.4375 6.03125 51.4375 7.75781C51.4375 9.49219 50.5234 10.6484 49.1641 10.6484C47.7891 10.6484 46.8906 9.51562 46.8906 7.75781C46.8906 6.00781 47.7969 4.86719 49.1641 4.86719Z" fill="white"/>
<path d="M63.4062 12C65.8125 12 67.2578 10.7969 67.2578 8.8125C67.2578 7.3125 66.2188 6.22656 64.6953 6.05469V5.99219C65.8203 5.80469 66.6953 4.73438 66.6953 3.53906C66.6953 1.83594 65.3828 0.726562 63.3906 0.726562H58.7734V12H63.4062ZM60.5234 2.15625H62.9609C64.2344 2.15625 64.9531 2.73438 64.9531 3.78125C64.9531 4.89844 64.1172 5.52344 62.5938 5.52344H60.5234V2.15625ZM60.5234 10.5703V6.85938H62.9531C64.6016 6.85938 65.4688 7.48438 65.4688 8.70312C65.4688 9.92188 64.6328 10.5703 63.0547 10.5703H60.5234Z" fill="white"/>
<path d="M68.6016 12H70.2969V6.9375C70.2969 5.74219 71 4.96875 72.1172 4.96875C72.4531 4.96875 72.75 5.01562 72.8906 5.07031V3.48438C72.7578 3.45312 72.5469 3.42969 72.2969 3.42969C71.2969 3.42969 70.5156 4 70.25 4.94531H70.2188V3.51562H68.6016V12Z" fill="white"/>
<path d="M76.75 10.7344C75.7734 10.7344 75.1406 10.2656 75.1406 9.53906C75.1406 8.78906 75.7422 8.35938 76.8984 8.28906L78.9609 8.14844V8.8125C78.9609 9.92969 78.0078 10.7344 76.75 10.7344ZM76.2969 12.0859C77.4531 12.0859 78.5078 11.5078 78.9766 10.5859H79.0156V12H80.6328V6.17969C80.6328 4.5 79.2969 3.40625 77.2266 3.40625C75.3203 3.40625 73.8984 4.51562 73.8516 6.01562H75.4375C75.5859 5.28125 76.2578 4.80469 77.1797 4.80469C78.3125 4.80469 78.9609 5.33594 78.9609 6.30469V6.96094L76.6719 7.09375C74.5781 7.22656 73.4297 8.08594 73.4297 9.57031C73.4297 11.0859 74.6016 12.0859 76.2969 12.0859Z" fill="white"/>
<path d="M82.3359 12H84.0312V7.10156C84.0312 5.76562 84.7969 4.875 86.0781 4.875C87.3203 4.875 87.9141 5.59375 87.9141 6.88281V12H89.6094V6.5625C89.6094 4.60938 88.5391 3.42188 86.6641 3.42188C85.3516 3.42188 84.5 3.94531 83.9844 4.94531H83.9531V3.51562H82.3359V12Z" fill="white"/>
<path d="M91.1641 5.92969C91.1641 7.10156 91.9219 7.88281 93.4531 8.25781L94.9688 8.63281C95.8594 8.85938 96.1953 9.14062 96.1953 9.67969C96.1953 10.3672 95.5312 10.8047 94.4766 10.8047C93.3984 10.8047 92.7422 10.3594 92.6094 9.54688H90.9375C91.0625 11.0781 92.4141 12.1016 94.3906 12.1016C96.4453 12.1016 97.8828 11.0547 97.8828 9.53906C97.8828 8.28906 97.25 7.67188 95.5391 7.25781L94.1328 6.92188C93.2344 6.70312 92.8125 6.35156 92.8125 5.83594C92.8125 5.16406 93.4531 4.71875 94.4141 4.71875C95.3828 4.71875 96.0312 5.1875 96.1016 5.9375H97.6953C97.6562 4.46094 96.3125 3.41406 94.4531 3.41406C92.5 3.41406 91.1641 4.4375 91.1641 5.92969Z" fill="white"/>
<path d="M102.891 12.1016C105.344 12.1016 106.898 10.4297 106.898 7.75781C106.898 5.08594 105.336 3.40625 102.891 3.40625C100.445 3.40625 98.875 5.09375 98.875 7.75781C98.875 10.4297 100.438 12.1016 102.891 12.1016ZM102.891 10.6953C101.453 10.6953 100.594 9.60938 100.594 7.75781C100.594 5.91406 101.453 4.8125 102.891 4.8125C104.328 4.8125 105.18 5.90625 105.18 7.75781C105.18 9.60938 104.328 10.6953 102.891 10.6953Z" fill="white"/>
<path d="M108.258 12H109.953V7.10156C109.953 5.76562 110.719 4.875 112 4.875C113.242 4.875 113.836 5.59375 113.836 6.88281V12H115.531V6.5625C115.531 4.60938 114.461 3.42188 112.586 3.42188C111.273 3.42188 110.422 3.94531 109.906 4.94531H109.875V3.51562H108.258V12Z" fill="white"/>
<path d="M120.977 12H122.672V3.51562H120.977V12ZM121.828 2.30469C122.375 2.30469 122.82 1.86719 122.82 1.32812C122.82 0.773438 122.375 0.351562 121.828 0.351562C121.281 0.351562 120.836 0.773438 120.836 1.32812C120.836 1.86719 121.281 2.30469 121.828 2.30469Z" fill="white"/>
<path d="M124.336 5.92969C124.336 7.10156 125.094 7.88281 126.625 8.25781L128.141 8.63281C129.031 8.85938 129.367 9.14062 129.367 9.67969C129.367 10.3672 128.703 10.8047 127.648 10.8047C126.57 10.8047 125.914 10.3594 125.781 9.54688H124.109C124.234 11.0781 125.586 12.1016 127.562 12.1016C129.617 12.1016 131.055 11.0547 131.055 9.53906C131.055 8.28906 130.422 7.67188 128.711 7.25781L127.305 6.92188C126.406 6.70312 125.984 6.35156 125.984 5.83594C125.984 5.16406 126.625 4.71875 127.586 4.71875C128.555 4.71875 129.203 5.1875 129.273 5.9375H130.867C130.828 4.46094 129.484 3.41406 127.625 3.41406C125.672 3.41406 124.336 4.4375 124.336 5.92969Z" fill="white"/>
<path d="M139.062 10.7344C138.086 10.7344 137.453 10.2656 137.453 9.53906C137.453 8.78906 138.055 8.35938 139.211 8.28906L141.273 8.14844V8.8125C141.273 9.92969 140.32 10.7344 139.062 10.7344ZM138.609 12.0859C139.766 12.0859 140.82 11.5078 141.289 10.5859H141.328V12H142.945V6.17969C142.945 4.5 141.609 3.40625 139.539 3.40625C137.633 3.40625 136.211 4.51562 136.164 6.01562H137.75C137.898 5.28125 138.57 4.80469 139.492 4.80469C140.625 4.80469 141.273 5.33594 141.273 6.30469V6.96094L138.984 7.09375C136.891 7.22656 135.742 8.08594 135.742 9.57031C135.742 11.0859 136.914 12.0859 138.609 12.0859Z" fill="white"/>
<path d="M152.805 12.0859C154.961 12.0859 156.367 10.3906 156.367 7.75781C156.367 5.125 154.961 3.42969 152.82 3.42969C151.617 3.42969 150.648 3.96875 150.133 4.92188H150.102V0.21875H148.406V12H150.039V10.5625H150.078C150.602 11.5391 151.57 12.0859 152.805 12.0859ZM152.375 4.86719C153.742 4.86719 154.633 6 154.633 7.75781C154.633 9.51562 153.742 10.6484 152.375 10.6484C151.008 10.6484 150.094 9.48438 150.094 7.75781C150.094 6.03906 151.008 4.86719 152.375 4.86719Z" fill="white"/>
<path d="M157.789 12H159.484V3.51562H157.789V12ZM158.641 2.30469C159.188 2.30469 159.633 1.86719 159.633 1.32812C159.633 0.773438 159.188 0.351562 158.641 0.351562C158.094 0.351562 157.648 0.773438 157.648 1.32812C157.648 1.86719 158.094 2.30469 158.641 2.30469Z" fill="white"/>
<path d="M161.359 12H163.055V0.21875H161.359V12Z" fill="white"/>
<path d="M164.938 12H166.633V0.21875H164.938V12Z" fill="white"/>
<path d="M168.508 12H170.203V3.51562H168.508V12ZM169.359 2.30469C169.906 2.30469 170.352 1.86719 170.352 1.32812C170.352 0.773438 169.906 0.351562 169.359 0.351562C168.812 0.351562 168.367 0.773438 168.367 1.32812C168.367 1.86719 168.812 2.30469 169.359 2.30469Z" fill="white"/>
<path d="M175.641 12.1016C178.094 12.1016 179.648 10.4297 179.648 7.75781C179.648 5.08594 178.086 3.40625 175.641 3.40625C173.195 3.40625 171.625 5.09375 171.625 7.75781C171.625 10.4297 173.188 12.1016 175.641 12.1016ZM175.641 10.6953C174.203 10.6953 173.344 9.60938 173.344 7.75781C173.344 5.91406 174.203 4.8125 175.641 4.8125C177.078 4.8125 177.93 5.90625 177.93 7.75781C177.93 9.60938 177.078 10.6953 175.641 10.6953Z" fill="white"/>
<path d="M181.008 12H182.703V7.10156C182.703 5.76562 183.469 4.875 184.75 4.875C185.992 4.875 186.586 5.59375 186.586 6.88281V12H188.281V6.5625C188.281 4.60938 187.211 3.42188 185.336 3.42188C184.023 3.42188 183.172 3.94531 182.656 4.94531H182.625V3.51562H181.008V12Z" fill="white"/>
<path d="M192.922 10.7344C191.945 10.7344 191.312 10.2656 191.312 9.53906C191.312 8.78906 191.914 8.35938 193.07 8.28906L195.133 8.14844V8.8125C195.133 9.92969 194.18 10.7344 192.922 10.7344ZM192.469 12.0859C193.625 12.0859 194.68 11.5078 195.148 10.5859H195.188V12H196.805V6.17969C196.805 4.5 195.469 3.40625 193.398 3.40625C191.492 3.40625 190.07 4.51562 190.023 6.01562H191.609C191.758 5.28125 192.43 4.80469 193.352 4.80469C194.484 4.80469 195.133 5.33594 195.133 6.30469V6.96094L192.844 7.09375C190.75 7.22656 189.602 8.08594 189.602 9.57031C189.602 11.0859 190.773 12.0859 192.469 12.0859Z" fill="white"/>
<path d="M198.57 12H200.266V3.51562H198.57V12ZM199.422 2.30469C199.969 2.30469 200.414 1.86719 200.414 1.32812C200.414 0.773438 199.969 0.351562 199.422 0.351562C198.875 0.351562 198.43 0.773438 198.43 1.32812C198.43 1.86719 198.875 2.30469 199.422 2.30469Z" fill="white"/>
<path d="M202.07 12H203.766V6.9375C203.766 5.74219 204.469 4.96875 205.586 4.96875C205.922 4.96875 206.219 5.01562 206.359 5.07031V3.48438C206.227 3.45312 206.016 3.42969 205.766 3.42969C204.766 3.42969 203.984 4 203.719 4.94531H203.688V3.51562H202.07V12Z" fill="white"/>
<path d="M210.617 4.78906C211.852 4.78906 212.688 5.66406 212.727 6.98438H208.422C208.516 5.67969 209.398 4.78906 210.617 4.78906ZM212.719 9.51562C212.484 10.2578 211.711 10.7266 210.727 10.7266C209.336 10.7266 208.414 9.75781 208.414 8.28906V8.1875H214.422V7.59375C214.422 5.02344 212.953 3.40625 210.625 3.40625C208.25 3.40625 206.703 5.13281 206.703 7.78906C206.703 10.4453 208.234 12.1016 210.695 12.1016C212.602 12.1016 214.094 11.0391 214.336 9.51562H212.719Z" fill="white"/>
<path d="M226.805 10.4844H221.398V6.98438H226.516V5.53125H221.398V2.23438H226.805V0.726562H219.648V12H226.805V10.4844Z" fill="white"/>
<path d="M228.43 12H230.125V7.10156C230.125 5.76562 230.891 4.875 232.172 4.875C233.414 4.875 234.008 5.59375 234.008 6.88281V12H235.703V6.5625C235.703 4.60938 234.633 3.42188 232.758 3.42188C231.445 3.42188 230.594 3.94531 230.078 4.94531H230.047V3.51562H228.43V12Z" fill="white"/>
<path d="M241 10.5703C239.633 10.5703 238.75 9.46875 238.75 7.73438C238.75 5.99219 239.633 4.86719 241 4.86719C242.375 4.86719 243.289 6.01562 243.289 7.73438C243.289 9.44531 242.375 10.5703 241 10.5703ZM241.008 15.0547C243.453 15.0547 244.977 13.8047 244.977 11.7812V3.51562H243.336V4.92188H243.305C242.781 3.98438 241.797 3.42969 240.594 3.42969C238.422 3.42969 237.016 5.10938 237.016 7.72656C237.016 10.3125 238.438 11.9766 240.555 11.9766C241.758 11.9766 242.758 11.4297 243.25 10.5156H243.289V11.9141C243.289 13.0234 242.422 13.7266 241.078 13.7266C240.039 13.7266 239.25 13.3125 239.062 12.6562H237.352C237.516 14.1094 238.969 15.0547 241.008 15.0547Z" fill="white"/>
<path d="M246.781 12H248.477V0.21875H246.781V12Z" fill="white"/>
<path d="M250.352 12H252.047V3.51562H250.352V12ZM251.203 2.30469C251.75 2.30469 252.195 1.86719 252.195 1.32812C252.195 0.773438 251.75 0.351562 251.203 0.351562C250.656 0.351562 250.211 0.773438 250.211 1.32812C250.211 1.86719 250.656 2.30469 251.203 2.30469Z" fill="white"/>
<path d="M253.711 5.92969C253.711 7.10156 254.469 7.88281 256 8.25781L257.516 8.63281C258.406 8.85938 258.742 9.14062 258.742 9.67969C258.742 10.3672 258.078 10.8047 257.023 10.8047C255.945 10.8047 255.289 10.3594 255.156 9.54688H253.484C253.609 11.0781 254.961 12.1016 256.938 12.1016C258.992 12.1016 260.43 11.0547 260.43 9.53906C260.43 8.28906 259.797 7.67188 258.086 7.25781L256.68 6.92188C255.781 6.70312 255.359 6.35156 255.359 5.83594C255.359 5.16406 256 4.71875 256.961 4.71875C257.93 4.71875 258.578 5.1875 258.648 5.9375H260.242C260.203 4.46094 258.859 3.41406 257 3.41406C255.047 3.41406 253.711 4.4375 253.711 5.92969Z" fill="white"/>
<path d="M261.875 12H263.57V7.14062C263.57 5.78125 264.367 4.875 265.688 4.875C266.93 4.875 267.562 5.64062 267.562 6.90625V12H269.258V6.57812C269.258 4.66406 268.141 3.42188 266.273 3.42188C264.977 3.42188 264.102 3.94531 263.594 4.94531H263.555V0.21875H261.875V12Z" fill="white"/>
<path d="M5.33594 33.0859C7.49219 33.0859 8.89844 31.3906 8.89844 28.7578C8.89844 26.125 7.49219 24.4297 5.35156 24.4297C4.14844 24.4297 3.17969 24.9688 2.66406 25.9219H2.63281V21.2188H0.9375V33H2.57031V31.5625H2.60938C3.13281 32.5391 4.10156 33.0859 5.33594 33.0859ZM4.90625 25.8672C6.27344 25.8672 7.16406 27 7.16406 28.7578C7.16406 30.5156 6.27344 31.6484 4.90625 31.6484C3.53906 31.6484 2.625 30.4844 2.625 28.7578C2.625 27.0391 3.53906 25.8672 4.90625 25.8672Z" fill="white"/>
<path d="M17.4922 24.5156H15.7969V29.4062C15.7969 30.75 15.0234 31.6328 13.7578 31.6328C12.5312 31.6328 11.9141 30.9375 11.9141 29.6328V24.5156H10.2188V29.9531C10.2188 31.8984 11.3438 33.0938 13.1953 33.0938C14.4922 33.0938 15.3516 32.5547 15.8438 31.5469H15.875V33H17.4922V24.5156Z" fill="white"/>
<path d="M19.0859 26.9297C19.0859 28.1016 19.8438 28.8828 21.375 29.2578L22.8906 29.6328C23.7812 29.8594 24.1172 30.1406 24.1172 30.6797C24.1172 31.3672 23.4531 31.8047 22.3984 31.8047C21.3203 31.8047 20.6641 31.3594 20.5312 30.5469H18.8594C18.9844 32.0781 20.3359 33.1016 22.3125 33.1016C24.3672 33.1016 25.8047 32.0547 25.8047 30.5391C25.8047 29.2891 25.1719 28.6719 23.4609 28.2578L22.0547 27.9219C21.1562 27.7031 20.7344 27.3516 20.7344 26.8359C20.7344 26.1641 21.375 25.7188 22.3359 25.7188C23.3047 25.7188 23.9531 26.1875 24.0234 26.9375H25.6172C25.5781 25.4609 24.2344 24.4141 22.375 24.4141C20.4219 24.4141 19.0859 25.4375 19.0859 26.9297Z" fill="white"/>
<path d="M27.2422 33H28.9375V24.5156H27.2422V33ZM28.0938 23.3047C28.6406 23.3047 29.0859 22.8672 29.0859 22.3281C29.0859 21.7734 28.6406 21.3516 28.0938 21.3516C27.5469 21.3516 27.1016 21.7734 27.1016 22.3281C27.1016 22.8672 27.5469 23.3047 28.0938 23.3047Z" fill="white"/>
<path d="M30.7422 33H32.4375V28.1016C32.4375 26.7656 33.2031 25.875 34.4844 25.875C35.7266 25.875 36.3203 26.5938 36.3203 27.8828V33H38.0156V27.5625C38.0156 25.6094 36.9453 24.4219 35.0703 24.4219C33.7578 24.4219 32.9062 24.9453 32.3906 25.9453H32.3594V24.5156H30.7422V33Z" fill="white"/>
<path d="M43.2422 25.7891C44.4766 25.7891 45.3125 26.6641 45.3516 27.9844H41.0469C41.1406 26.6797 42.0234 25.7891 43.2422 25.7891ZM45.3438 30.5156C45.1094 31.2578 44.3359 31.7266 43.3516 31.7266C41.9609 31.7266 41.0391 30.7578 41.0391 29.2891V29.1875H47.0469V28.5938C47.0469 26.0234 45.5781 24.4062 43.25 24.4062C40.875 24.4062 39.3281 26.1328 39.3281 28.7891C39.3281 31.4453 40.8594 33.1016 43.3203 33.1016C45.2266 33.1016 46.7188 32.0391 46.9609 30.5156H45.3438Z" fill="white"/>
<path d="M48.2734 26.9297C48.2734 28.1016 49.0312 28.8828 50.5625 29.2578L52.0781 29.6328C52.9688 29.8594 53.3047 30.1406 53.3047 30.6797C53.3047 31.3672 52.6406 31.8047 51.5859 31.8047C50.5078 31.8047 49.8516 31.3594 49.7188 30.5469H48.0469C48.1719 32.0781 49.5234 33.1016 51.5 33.1016C53.5547 33.1016 54.9922 32.0547 54.9922 30.5391C54.9922 29.2891 54.3594 28.6719 52.6484 28.2578L51.2422 27.9219C50.3438 27.7031 49.9219 27.3516 49.9219 26.8359C49.9219 26.1641 50.5625 25.7188 51.5234 25.7188C52.4922 25.7188 53.1406 26.1875 53.2109 26.9375H54.8047C54.7656 25.4609 53.4219 24.4141 51.5625 24.4141C49.6094 24.4141 48.2734 25.4375 48.2734 26.9297Z" fill="white"/>
<path d="M56.2266 26.9297C56.2266 28.1016 56.9844 28.8828 58.5156 29.2578L60.0312 29.6328C60.9219 29.8594 61.2578 30.1406 61.2578 30.6797C61.2578 31.3672 60.5938 31.8047 59.5391 31.8047C58.4609 31.8047 57.8047 31.3594 57.6719 30.5469H56C56.125 32.0781 57.4766 33.1016 59.4531 33.1016C61.5078 33.1016 62.9453 32.0547 62.9453 30.5391C62.9453 29.2891 62.3125 28.6719 60.6016 28.2578L59.1953 27.9219C58.2969 27.7031 57.875 27.3516 57.875 26.8359C57.875 26.1641 58.5156 25.7188 59.4766 25.7188C60.4453 25.7188 61.0938 26.1875 61.1641 26.9375H62.7578C62.7188 25.4609 61.375 24.4141 59.5156 24.4141C57.5625 24.4141 56.2266 25.4375 56.2266 26.9297Z" fill="white"/>
<path d="M64.3203 33H66.0156V27.7969C66.0156 26.6875 66.7656 25.875 67.8125 25.875C68.8047 25.875 69.4375 26.5 69.4375 27.4844V33H71.1016V27.7344C71.1016 26.6484 71.8359 25.875 72.875 25.875C73.9297 25.875 74.5312 26.5156 74.5312 27.625V33H76.2188V27.2188C76.2188 25.5234 75.125 24.4219 73.4531 24.4219C72.2422 24.4219 71.2422 25.0469 70.7969 26.0703H70.7578C70.4141 25.0156 69.5625 24.4219 68.3828 24.4219C67.2734 24.4219 66.3594 25 65.9688 25.9531H65.9375V24.5156H64.3203V33Z" fill="white"/>
<path d="M80.8594 31.7344C79.8828 31.7344 79.25 31.2656 79.25 30.5391C79.25 29.7891 79.8516 29.3594 81.0078 29.2891L83.0703 29.1484V29.8125C83.0703 30.9297 82.1172 31.7344 80.8594 31.7344ZM80.4062 33.0859C81.5625 33.0859 82.6172 32.5078 83.0859 31.5859H83.125V33H84.7422V27.1797C84.7422 25.5 83.4062 24.4062 81.3359 24.4062C79.4297 24.4062 78.0078 25.5156 77.9609 27.0156H79.5469C79.6953 26.2812 80.3672 25.8047 81.2891 25.8047C82.4219 25.8047 83.0703 26.3359 83.0703 27.3047V27.9609L80.7812 28.0938C78.6875 28.2266 77.5391 29.0859 77.5391 30.5703C77.5391 32.0859 78.7109 33.0859 80.4062 33.0859Z" fill="white"/>
<path d="M86.4453 33H88.1406V28.1016C88.1406 26.7656 88.9062 25.875 90.1875 25.875C91.4297 25.875 92.0234 26.5938 92.0234 27.8828V33H93.7188V27.5625C93.7188 25.6094 92.6484 24.4219 90.7734 24.4219C89.4609 24.4219 88.6094 24.9453 88.0938 25.9453H88.0625V24.5156H86.4453V33Z" fill="white"/>
<path d="M96.6484 27.3906C97.2266 27.3906 97.6719 26.9453 97.6719 26.3672C97.6719 25.7891 97.2266 25.3438 96.6484 25.3438C96.0781 25.3438 95.625 25.7891 95.625 26.3672C95.625 26.9453 96.0781 27.3906 96.6484 27.3906ZM96.3047 35.0469L97.4453 31.2344H95.7344L95.0078 35.0469H96.3047Z" fill="white"/>
<path d="M105.078 28.1797H105.07V21.2188H103.375V33H105.07V29.9219L105.805 29.2031L108.734 33H110.688L107.016 28.1719L110.562 24.5156H108.57L105.078 28.1797Z" fill="white"/>
<path d="M111.602 33H113.297V28.1016C113.297 26.7656 114.062 25.875 115.344 25.875C116.586 25.875 117.18 26.5938 117.18 27.8828V33H118.875V27.5625C118.875 25.6094 117.805 24.4219 115.93 24.4219C114.617 24.4219 113.766 24.9453 113.25 25.9453H113.219V24.5156H111.602V33Z" fill="white"/>
<path d="M124.203 33.1016C126.656 33.1016 128.211 31.4297 128.211 28.7578C128.211 26.0859 126.648 24.4062 124.203 24.4062C121.758 24.4062 120.188 26.0938 120.188 28.7578C120.188 31.4297 121.75 33.1016 124.203 33.1016ZM124.203 31.6953C122.766 31.6953 121.906 30.6094 121.906 28.7578C121.906 26.9141 122.766 25.8125 124.203 25.8125C125.641 25.8125 126.492 26.9062 126.492 28.7578C126.492 30.6094 125.641 31.6953 124.203 31.6953Z" fill="white"/>
<path d="M140.68 24.5156H139.008L137.43 31.2344H137.398L135.594 24.5156H133.969L132.172 31.2344H132.141L130.562 24.5156H128.875L131.219 33H132.961L134.75 26.6094H134.789L136.594 33H138.344L140.68 24.5156Z" fill="white"/>
<path d="M141.758 33H143.453V28.1016C143.453 26.7656 144.219 25.875 145.5 25.875C146.742 25.875 147.336 26.5938 147.336 27.8828V33H149.031V27.5625C149.031 25.6094 147.961 24.4219 146.086 24.4219C144.773 24.4219 143.922 24.9453 143.406 25.9453H143.375V24.5156H141.758V33Z" fill="white"/>
<path d="M154.922 33H156.609V25.8516H158.227V24.5156H156.594V23.7891C156.602 23.0625 156.891 22.7578 157.586 22.7578C157.812 22.7578 158.047 22.7812 158.219 22.8203V21.5312C157.945 21.4844 157.664 21.4531 157.359 21.4531C155.641 21.4531 154.922 22.1484 154.922 23.7344V24.5156H153.75V25.8516H154.922V33Z" fill="white"/>
<path d="M162.922 33.1016C165.375 33.1016 166.93 31.4297 166.93 28.7578C166.93 26.0859 165.367 24.4062 162.922 24.4062C160.477 24.4062 158.906 26.0938 158.906 28.7578C158.906 31.4297 160.469 33.1016 162.922 33.1016ZM162.922 31.6953C161.484 31.6953 160.625 30.6094 160.625 28.7578C160.625 26.9141 161.484 25.8125 162.922 25.8125C164.359 25.8125 165.211 26.9062 165.211 28.7578C165.211 30.6094 164.359 31.6953 162.922 31.6953Z" fill="white"/>
<path d="M168.289 33H169.984V27.9375C169.984 26.7422 170.688 25.9688 171.805 25.9688C172.141 25.9688 172.438 26.0156 172.578 26.0703V24.4844C172.445 24.4531 172.234 24.4297 171.984 24.4297C170.984 24.4297 170.203 25 169.938 25.9453H169.906V24.5156H168.289V33Z" fill="white"/>
<path d="M177.414 33H179.109V24.5156H177.414V33ZM178.266 23.3047C178.812 23.3047 179.258 22.8672 179.258 22.3281C179.258 21.7734 178.812 21.3516 178.266 21.3516C177.719 21.3516 177.273 21.7734 177.273 22.3281C177.273 22.8672 177.719 23.3047 178.266 23.3047Z" fill="white"/>
<path d="M181.422 22.6094V24.5156H180.25V25.8516H181.422V30.7656C181.422 32.4062 182.078 33.0547 183.773 33.0547C184.141 33.0547 184.539 33.0156 184.727 32.9688V31.6328C184.617 31.6484 184.328 31.6719 184.148 31.6719C183.438 31.6719 183.109 31.3281 183.109 30.5938V25.8516H184.734V24.5156H183.109V22.6094H181.422Z" fill="white"/>
<path d="M186.023 26.9297C186.023 28.1016 186.781 28.8828 188.312 29.2578L189.828 29.6328C190.719 29.8594 191.055 30.1406 191.055 30.6797C191.055 31.3672 190.391 31.8047 189.336 31.8047C188.258 31.8047 187.602 31.3594 187.469 30.5469H185.797C185.922 32.0781 187.273 33.1016 189.25 33.1016C191.305 33.1016 192.742 32.0547 192.742 30.5391C192.742 29.2891 192.109 28.6719 190.398 28.2578L188.992 27.9219C188.094 27.7031 187.672 27.3516 187.672 26.8359C187.672 26.1641 188.312 25.7188 189.273 25.7188C190.242 25.7188 190.891 26.1875 190.961 26.9375H192.555C192.516 25.4609 191.172 24.4141 189.312 24.4141C187.359 24.4141 186.023 25.4375 186.023 26.9297Z" fill="white"/>
<path d="M203.078 33L207.102 21.7266H205.234L202.156 31.0312H202.109L199.039 21.7266H197.141L201.164 33H203.078Z" fill="white"/>
<path d="M208.242 33H209.938V24.5156H208.242V33ZM209.094 23.3047C209.641 23.3047 210.086 22.8672 210.086 22.3281C210.086 21.7734 209.641 21.3516 209.094 21.3516C208.547 21.3516 208.102 21.7734 208.102 22.3281C208.102 22.8672 208.547 23.3047 209.094 23.3047Z" fill="white"/>
<path d="M211.742 33H213.438V27.9375C213.438 26.7422 214.141 25.9688 215.258 25.9688C215.594 25.9688 215.891 26.0156 216.031 26.0703V24.4844C215.898 24.4531 215.688 24.4297 215.438 24.4297C214.438 24.4297 213.656 25 213.391 25.9453H213.359V24.5156H211.742V33Z" fill="white"/>
<path d="M220.359 31.5703C218.992 31.5703 218.109 30.4688 218.109 28.7344C218.109 26.9922 218.992 25.8672 220.359 25.8672C221.734 25.8672 222.648 27.0156 222.648 28.7344C222.648 30.4453 221.734 31.5703 220.359 31.5703ZM220.367 36.0547C222.812 36.0547 224.336 34.8047 224.336 32.7812V24.5156H222.695V25.9219H222.664C222.141 24.9844 221.156 24.4297 219.953 24.4297C217.781 24.4297 216.375 26.1094 216.375 28.7266C216.375 31.3125 217.797 32.9766 219.914 32.9766C221.117 32.9766 222.117 32.4297 222.609 31.5156H222.648V32.9141C222.648 34.0234 221.781 34.7266 220.438 34.7266C219.398 34.7266 218.609 34.3125 218.422 33.6562H216.711C216.875 35.1094 218.328 36.0547 220.367 36.0547Z" fill="white"/>
<path d="M226.133 33H227.828V24.5156H226.133V33ZM226.984 23.3047C227.531 23.3047 227.977 22.8672 227.977 22.3281C227.977 21.7734 227.531 21.3516 226.984 21.3516C226.438 21.3516 225.992 21.7734 225.992 22.3281C225.992 22.8672 226.438 23.3047 226.984 23.3047Z" fill="white"/>
<path d="M229.633 33H231.328V28.1016C231.328 26.7656 232.094 25.875 233.375 25.875C234.617 25.875 235.211 26.5938 235.211 27.8828V33H236.906V27.5625C236.906 25.6094 235.836 24.4219 233.961 24.4219C232.648 24.4219 231.797 24.9453 231.281 25.9453H231.25V24.5156H229.633V33Z" fill="white"/>
<path d="M246.758 33.0859C248.914 33.0859 250.32 31.3906 250.32 28.7578C250.32 26.125 248.914 24.4297 246.773 24.4297C245.57 24.4297 244.602 24.9688 244.086 25.9219H244.055V21.2188H242.359V33H243.992V31.5625H244.031C244.555 32.5391 245.523 33.0859 246.758 33.0859ZM246.328 25.8672C247.695 25.8672 248.586 27 248.586 28.7578C248.586 30.5156 247.695 31.6484 246.328 31.6484C244.961 31.6484 244.047 30.4844 244.047 28.7578C244.047 27.0391 244.961 25.8672 246.328 25.8672Z" fill="white"/>
<path d="M251.68 33H253.375V27.9375C253.375 26.7422 254.078 25.9688 255.195 25.9688C255.531 25.9688 255.828 26.0156 255.969 26.0703V24.4844C255.836 24.4531 255.625 24.4297 255.375 24.4297C254.375 24.4297 253.594 25 253.328 25.9453H253.297V24.5156H251.68V33Z" fill="white"/>
<path d="M259.828 31.7344C258.852 31.7344 258.219 31.2656 258.219 30.5391C258.219 29.7891 258.82 29.3594 259.977 29.2891L262.039 29.1484V29.8125C262.039 30.9297 261.086 31.7344 259.828 31.7344ZM259.375 33.0859C260.531 33.0859 261.586 32.5078 262.055 31.5859H262.094V33H263.711V27.1797C263.711 25.5 262.375 24.4062 260.305 24.4062C258.398 24.4062 256.977 25.5156 256.93 27.0156H258.516C258.664 26.2812 259.336 25.8047 260.258 25.8047C261.391 25.8047 262.039 26.3359 262.039 27.3047V27.9609L259.75 28.0938C257.656 28.2266 256.508 29.0859 256.508 30.5703C256.508 32.0859 257.68 33.0859 259.375 33.0859Z" fill="white"/>
<path d="M265.414 33H267.109V28.1016C267.109 26.7656 267.875 25.875 269.156 25.875C270.398 25.875 270.992 26.5938 270.992 27.8828V33H272.688V27.5625C272.688 25.6094 271.617 24.4219 269.742 24.4219C268.43 24.4219 267.578 24.9453 267.062 25.9453H267.031V24.5156H265.414V33Z" fill="white"/>
<path d="M277.578 33.0859C278.82 33.0859 279.789 32.5234 280.289 31.5625H280.32V33H281.961V21.2188H280.273V25.9219H280.234C279.75 24.9844 278.781 24.4297 277.562 24.4297C275.453 24.4297 274 26.1406 274 28.75C274 31.375 275.453 33.0859 277.578 33.0859ZM278.008 25.8672C279.367 25.8672 280.281 27.0312 280.281 28.7578C280.281 30.4922 279.367 31.6484 278.008 31.6484C276.633 31.6484 275.734 30.5156 275.734 28.7578C275.734 27.0078 276.641 25.8672 278.008 25.8672Z" fill="white"/>
<path d="M284.914 35.0469L286.047 31.2344H284.352L283.617 35.0469H284.914Z" fill="white"/>
<path d="M302.789 24.5156H301.117L299.539 31.2344H299.508L297.703 24.5156H296.078L294.281 31.2344H294.25L292.672 24.5156H290.984L293.328 33H295.07L296.859 26.6094H296.898L298.703 33H300.453L302.789 24.5156Z" fill="white"/>
<path d="M303.93 33H305.625V24.5156H303.93V33ZM304.781 23.3047C305.328 23.3047 305.773 22.8672 305.773 22.3281C305.773 21.7734 305.328 21.3516 304.781 21.3516C304.234 21.3516 303.789 21.7734 303.789 22.3281C303.789 22.8672 304.234 23.3047 304.781 23.3047Z" fill="white"/>
<path d="M307.938 22.6094V24.5156H306.766V25.8516H307.938V30.7656C307.938 32.4062 308.594 33.0547 310.289 33.0547C310.656 33.0547 311.055 33.0156 311.242 32.9688V31.6328C311.133 31.6484 310.844 31.6719 310.664 31.6719C309.953 31.6719 309.625 31.3281 309.625 30.5938V25.8516H311.25V24.5156H309.625V22.6094H307.938Z" fill="white"/>
<path d="M312.75 33H314.445V28.1406C314.445 26.7812 315.242 25.875 316.562 25.875C317.805 25.875 318.438 26.6406 318.438 27.9062V33H320.133V27.5781C320.133 25.6641 319.016 24.4219 317.148 24.4219C315.852 24.4219 314.977 24.9453 314.469 25.9453H314.43V21.2188H312.75V33Z" fill="white"/>
<path d="M0.867188 54H2.5625V48.7969C2.5625 47.6875 3.3125 46.875 4.35938 46.875C5.35156 46.875 5.98438 47.5 5.98438 48.4844V54H7.64844V48.7344C7.64844 47.6484 8.38281 46.875 9.42188 46.875C10.4766 46.875 11.0781 47.5156 11.0781 48.625V54H12.7656V48.2188C12.7656 46.5234 11.6719 45.4219 10 45.4219C8.78906 45.4219 7.78906 46.0469 7.34375 47.0703H7.30469C6.96094 46.0156 6.10938 45.4219 4.92969 45.4219C3.82031 45.4219 2.90625 46 2.51562 46.9531H2.48438V45.5156H0.867188V54Z" fill="white"/>
<path d="M18.0938 54.1016C20.5469 54.1016 22.1016 52.4297 22.1016 49.7578C22.1016 47.0859 20.5391 45.4062 18.0938 45.4062C15.6484 45.4062 14.0781 47.0938 14.0781 49.7578C14.0781 52.4297 15.6406 54.1016 18.0938 54.1016ZM18.0938 52.6953C16.6562 52.6953 15.7969 51.6094 15.7969 49.7578C15.7969 47.9141 16.6562 46.8125 18.0938 46.8125C19.5312 46.8125 20.3828 47.9062 20.3828 49.7578C20.3828 51.6094 19.5312 52.6953 18.0938 52.6953Z" fill="white"/>
<path d="M23.4609 54H25.1562V48.9375C25.1562 47.7422 25.8594 46.9688 26.9766 46.9688C27.3125 46.9688 27.6094 47.0156 27.75 47.0703V45.4844C27.6172 45.4531 27.4062 45.4297 27.1562 45.4297C26.1562 45.4297 25.375 46 25.1094 46.9453H25.0781V45.5156H23.4609V54Z" fill="white"/>
<path d="M32.0078 46.7891C33.2422 46.7891 34.0781 47.6641 34.1172 48.9844H29.8125C29.9062 47.6797 30.7891 46.7891 32.0078 46.7891ZM34.1094 51.5156C33.875 52.2578 33.1016 52.7266 32.1172 52.7266C30.7266 52.7266 29.8047 51.7578 29.8047 50.2891V50.1875H35.8125V49.5938C35.8125 47.0234 34.3438 45.4062 32.0156 45.4062C29.6406 45.4062 28.0938 47.1328 28.0938 49.7891C28.0938 52.4453 29.625 54.1016 32.0859 54.1016C33.9922 54.1016 35.4844 53.0391 35.7266 51.5156H34.1094Z" fill="white"/>
<path d="M41.375 43.6094V45.5156H40.2031V46.8516H41.375V51.7656C41.375 53.4062 42.0312 54.0547 43.7266 54.0547C44.0938 54.0547 44.4922 54.0156 44.6797 53.9688V52.6328C44.5703 52.6484 44.2812 52.6719 44.1016 52.6719C43.3906 52.6719 43.0625 52.3281 43.0625 51.5938V46.8516H44.6875V45.5156H43.0625V43.6094H41.375Z" fill="white"/>
<path d="M46.1875 54H47.8828V49.1406C47.8828 47.7812 48.6797 46.875 50 46.875C51.2422 46.875 51.875 47.6406 51.875 48.9062V54H53.5703V48.5781C53.5703 46.6641 52.4531 45.4219 50.5859 45.4219C49.2891 45.4219 48.4141 45.9453 47.9062 46.9453H47.8672V42.2188H46.1875V54Z" fill="white"/>
<path d="M58.2188 52.7344C57.2422 52.7344 56.6094 52.2656 56.6094 51.5391C56.6094 50.7891 57.2109 50.3594 58.3672 50.2891L60.4297 50.1484V50.8125C60.4297 51.9297 59.4766 52.7344 58.2188 52.7344ZM57.7656 54.0859C58.9219 54.0859 59.9766 53.5078 60.4453 52.5859H60.4844V54H62.1016V48.1797C62.1016 46.5 60.7656 45.4062 58.6953 45.4062C56.7891 45.4062 55.3672 46.5156 55.3203 48.0156H56.9062C57.0547 47.2812 57.7266 46.8047 58.6484 46.8047C59.7812 46.8047 60.4297 47.3359 60.4297 48.3047V48.9609L58.1406 49.0938C56.0469 49.2266 54.8984 50.0859 54.8984 51.5703C54.8984 53.0859 56.0703 54.0859 57.7656 54.0859Z" fill="white"/>
<path d="M63.8047 54H65.5V49.1016C65.5 47.7656 66.2656 46.875 67.5469 46.875C68.7891 46.875 69.3828 47.5938 69.3828 48.8828V54H71.0781V48.5625C71.0781 46.6094 70.0078 45.4219 68.1328 45.4219C66.8203 45.4219 65.9688 45.9453 65.4531 46.9453H65.4219V45.5156H63.8047V54Z" fill="white"/>
<path d="M78.9219 48.8984H80.3281C81.8125 48.8984 82.7344 49.6484 82.7344 50.8672C82.7344 51.9688 81.75 52.75 80.375 52.75C78.9531 52.75 78.0625 52.0078 77.9531 50.9297H76.2734C76.3828 52.875 77.9453 54.2109 80.375 54.2109C82.7266 54.2109 84.5156 52.8594 84.5156 50.8906C84.5156 49.3125 83.4219 48.2734 81.7266 48.1562V48.125C83.125 47.875 84.0469 46.8672 84.0469 45.4609C84.0469 43.7266 82.4922 42.5156 80.3594 42.5156C78.125 42.5156 76.6328 43.7891 76.5 45.7656H78.1484C78.25 44.6562 79.0625 43.9531 80.2812 43.9531C81.6172 43.9531 82.3359 44.6484 82.3359 45.6953C82.3359 46.7578 81.5 47.5234 80.2812 47.5234H78.9219V48.8984Z" fill="white"/>
<path d="M90.3984 54.2188C92.7891 54.2188 94.5156 52.5781 94.5156 50.3203C94.5156 48.1797 92.9219 46.5938 90.7734 46.5938C89.3672 46.5938 88.1719 47.3281 87.6797 48.4219H87.6484C87.6562 45.5859 88.6875 43.9766 90.4609 43.9766C91.4922 43.9766 92.3359 44.5781 92.6094 45.5H94.3594C94.0156 43.7031 92.4688 42.5078 90.4766 42.5078C87.6562 42.5078 85.9688 44.7422 85.9688 48.5156C85.9688 49.8359 86.2031 50.9453 86.6641 51.8438C87.3984 53.3672 88.7344 54.2188 90.3984 54.2188ZM90.3828 52.7422C89.0391 52.7422 88 51.6797 88 50.3438C88 49.0078 89.0234 48.0234 90.3984 48.0234C91.7812 48.0234 92.7734 49.0078 92.7734 50.375C92.7734 51.6953 91.7109 52.7422 90.3828 52.7422Z" fill="white"/>
<path d="M100.109 54.2109C102.812 54.2109 104.398 51.9375 104.398 48.3438C104.398 44.7734 102.805 42.5156 100.109 42.5156C97.4219 42.5156 95.8047 44.7812 95.8047 48.3516C95.8047 51.9453 97.4062 54.2109 100.109 54.2109ZM100.109 52.7422C98.5 52.7422 97.5781 51.0703 97.5781 48.3516C97.5781 45.6719 98.5156 43.9844 100.109 43.9844C101.703 43.9844 102.633 45.6641 102.633 48.3516C102.633 51.0781 101.719 52.7422 100.109 52.7422Z" fill="white"/>
<path d="M116.898 48.4141C116.75 46.7812 115.406 45.4062 113.242 45.4062C110.844 45.4062 109.266 47.1172 109.266 49.7578C109.266 52.4453 110.852 54.1016 113.258 54.1016C115.297 54.1016 116.719 52.9219 116.914 51.1484H115.297C115.094 52.1406 114.367 52.6797 113.266 52.6797C111.906 52.6797 110.984 51.5859 110.984 49.7578C110.984 47.9766 111.891 46.8359 113.258 46.8359C114.422 46.8359 115.125 47.5156 115.281 48.4141H116.898Z" fill="white"/>
<path d="M121.797 54.1016C124.25 54.1016 125.805 52.4297 125.805 49.7578C125.805 47.0859 124.242 45.4062 121.797 45.4062C119.352 45.4062 117.781 47.0938 117.781 49.7578C117.781 52.4297 119.344 54.1016 121.797 54.1016ZM121.797 52.6953C120.359 52.6953 119.5 51.6094 119.5 49.7578C119.5 47.9141 120.359 46.8125 121.797 46.8125C123.234 46.8125 124.086 47.9062 124.086 49.7578C124.086 51.6094 123.234 52.6953 121.797 52.6953Z" fill="white"/>
<path d="M127.164 54H128.859V48.7969C128.859 47.6875 129.609 46.875 130.656 46.875C131.648 46.875 132.281 47.5 132.281 48.4844V54H133.945V48.7344C133.945 47.6484 134.68 46.875 135.719 46.875C136.773 46.875 137.375 47.5156 137.375 48.625V54H139.062V48.2188C139.062 46.5234 137.969 45.4219 136.297 45.4219C135.086 45.4219 134.086 46.0469 133.641 47.0703H133.602C133.258 46.0156 132.406 45.4219 131.227 45.4219C130.117 45.4219 129.203 46 128.812 46.9531H128.781V45.5156H127.164V54Z" fill="white"/>
<path d="M145.133 45.4297C143.953 45.4297 142.906 46.0078 142.43 46.9219H142.391V45.5156H140.758V56.8125H142.453V52.6094H142.484C142.992 53.5469 143.953 54.0859 145.172 54.0859C147.305 54.0859 148.719 52.3828 148.719 49.7578C148.719 47.125 147.297 45.4297 145.133 45.4297ZM144.703 52.6484C143.352 52.6484 142.445 51.4922 142.438 49.7578C142.445 48.0312 143.359 46.8672 144.703 46.8672C146.078 46.8672 146.984 48.0078 146.984 49.7578C146.984 51.5156 146.078 52.6484 144.703 52.6484Z" fill="white"/>
<path d="M153.016 52.7344C152.039 52.7344 151.406 52.2656 151.406 51.5391C151.406 50.7891 152.008 50.3594 153.164 50.2891L155.227 50.1484V50.8125C155.227 51.9297 154.273 52.7344 153.016 52.7344ZM152.562 54.0859C153.719 54.0859 154.773 53.5078 155.242 52.5859H155.281V54H156.898V48.1797C156.898 46.5 155.562 45.4062 153.492 45.4062C151.586 45.4062 150.164 46.5156 150.117 48.0156H151.703C151.852 47.2812 152.523 46.8047 153.445 46.8047C154.578 46.8047 155.227 47.3359 155.227 48.3047V48.9609L152.938 49.0938C150.844 49.2266 149.695 50.0859 149.695 51.5703C149.695 53.0859 150.867 54.0859 152.562 54.0859Z" fill="white"/>
<path d="M158.602 54H160.297V49.1016C160.297 47.7656 161.062 46.875 162.344 46.875C163.586 46.875 164.18 47.5938 164.18 48.8828V54H165.875V48.5625C165.875 46.6094 164.805 45.4219 162.93 45.4219C161.617 45.4219 160.766 45.9453 160.25 46.9453H160.219V45.5156H158.602V54Z" fill="white"/>
<path d="M167.633 54H169.328V45.5156H167.633V54ZM168.484 44.3047C169.031 44.3047 169.477 43.8672 169.477 43.3281C169.477 42.7734 169.031 42.3516 168.484 42.3516C167.938 42.3516 167.492 42.7734 167.492 43.3281C167.492 43.8672 167.938 44.3047 168.484 44.3047Z" fill="white"/>
<path d="M174.664 46.7891C175.898 46.7891 176.734 47.6641 176.773 48.9844H172.469C172.562 47.6797 173.445 46.7891 174.664 46.7891ZM176.766 51.5156C176.531 52.2578 175.758 52.7266 174.773 52.7266C173.383 52.7266 172.461 51.7578 172.461 50.2891V50.1875H178.469V49.5938C178.469 47.0234 177 45.4062 174.672 45.4062C172.297 45.4062 170.75 47.1328 170.75 49.7891C170.75 52.4453 172.281 54.1016 174.742 54.1016C176.648 54.1016 178.141 53.0391 178.383 51.5156H176.766Z" fill="white"/>
<path d="M179.695 47.9297C179.695 49.1016 180.453 49.8828 181.984 50.2578L183.5 50.6328C184.391 50.8594 184.727 51.1406 184.727 51.6797C184.727 52.3672 184.062 52.8047 183.008 52.8047C181.93 52.8047 181.273 52.3594 181.141 51.5469H179.469C179.594 53.0781 180.945 54.1016 182.922 54.1016C184.977 54.1016 186.414 53.0547 186.414 51.5391C186.414 50.2891 185.781 49.6719 184.07 49.2578L182.664 48.9219C181.766 48.7031 181.344 48.3516 181.344 47.8359C181.344 47.1641 181.984 46.7188 182.945 46.7188C183.914 46.7188 184.562 47.1875 184.633 47.9375H186.227C186.188 46.4609 184.844 45.4141 182.984 45.4141C181.031 45.4141 179.695 46.4375 179.695 47.9297Z" fill="white"/>
<path d="M191.477 54H193.172V48.7969C193.172 47.6875 193.922 46.875 194.969 46.875C195.961 46.875 196.594 47.5 196.594 48.4844V54H198.258V48.7344C198.258 47.6484 198.992 46.875 200.031 46.875C201.086 46.875 201.688 47.5156 201.688 48.625V54H203.375V48.2188C203.375 46.5234 202.281 45.4219 200.609 45.4219C199.398 45.4219 198.398 46.0469 197.953 47.0703H197.914C197.57 46.0156 196.719 45.4219 195.539 45.4219C194.43 45.4219 193.516 46 193.125 46.9531H193.094V45.5156H191.477V54Z" fill="white"/>
<path d="M208.016 52.7344C207.039 52.7344 206.406 52.2656 206.406 51.5391C206.406 50.7891 207.008 50.3594 208.164 50.2891L210.227 50.1484V50.8125C210.227 51.9297 209.273 52.7344 208.016 52.7344ZM207.562 54.0859C208.719 54.0859 209.773 53.5078 210.242 52.5859H210.281V54H211.898V48.1797C211.898 46.5 210.562 45.4062 208.492 45.4062C206.586 45.4062 205.164 46.5156 205.117 48.0156H206.703C206.852 47.2812 207.523 46.8047 208.445 46.8047C209.578 46.8047 210.227 47.3359 210.227 48.3047V48.9609L207.938 49.0938C205.844 49.2266 204.695 50.0859 204.695 51.5703C204.695 53.0859 205.867 54.0859 207.562 54.0859Z" fill="white"/>
<path d="M215.375 49.1797H215.367V42.2188H213.672V54H215.367V50.9219L216.102 50.2031L219.031 54H220.984L217.312 49.1719L220.859 45.5156H218.867L215.375 49.1797Z" fill="white"/>
<path d="M221.961 54H223.656V45.5156H221.961V54ZM222.812 44.3047C223.359 44.3047 223.805 43.8672 223.805 43.3281C223.805 42.7734 223.359 42.3516 222.812 42.3516C222.266 42.3516 221.82 42.7734 221.82 43.3281C221.82 43.8672 222.266 44.3047 222.812 44.3047Z" fill="white"/>
<path d="M225.461 54H227.156V49.1016C227.156 47.7656 227.922 46.875 229.203 46.875C230.445 46.875 231.039 47.5938 231.039 48.8828V54H232.734V48.5625C232.734 46.6094 231.664 45.4219 229.789 45.4219C228.477 45.4219 227.625 45.9453 227.109 46.9453H227.078V45.5156H225.461V54Z" fill="white"/>
<path d="M238.031 52.5703C236.664 52.5703 235.781 51.4688 235.781 49.7344C235.781 47.9922 236.664 46.8672 238.031 46.8672C239.406 46.8672 240.32 48.0156 240.32 49.7344C240.32 51.4453 239.406 52.5703 238.031 52.5703ZM238.039 57.0547C240.484 57.0547 242.008 55.8047 242.008 53.7812V45.5156H240.367V46.9219H240.336C239.812 45.9844 238.828 45.4297 237.625 45.4297C235.453 45.4297 234.047 47.1094 234.047 49.7266C234.047 52.3125 235.469 53.9766 237.586 53.9766C238.789 53.9766 239.789 53.4297 240.281 52.5156H240.32V53.9141C240.32 55.0234 239.453 55.7266 238.109 55.7266C237.07 55.7266 236.281 55.3125 236.094 54.6562H234.383C234.547 56.1094 236 57.0547 238.039 57.0547Z" fill="white"/>
<path d="M254.664 45.5156H252.969V50.4062C252.969 51.75 252.195 52.6328 250.93 52.6328C249.703 52.6328 249.086 51.9375 249.086 50.6328V45.5156H247.391V50.9531C247.391 52.8984 248.516 54.0938 250.367 54.0938C251.664 54.0938 252.523 53.5547 253.016 52.5469H253.047V54H254.664V45.5156Z" fill="white"/>
<path d="M260.773 45.4297C259.594 45.4297 258.547 46.0078 258.07 46.9219H258.031V45.5156H256.398V56.8125H258.094V52.6094H258.125C258.633 53.5469 259.594 54.0859 260.812 54.0859C262.945 54.0859 264.359 52.3828 264.359 49.7578C264.359 47.125 262.938 45.4297 260.773 45.4297ZM260.344 52.6484C258.992 52.6484 258.086 51.4922 258.078 49.7578C258.086 48.0312 259 46.8672 260.344 46.8672C261.719 46.8672 262.625 48.0078 262.625 49.7578C262.625 51.5156 261.719 52.6484 260.344 52.6484Z" fill="white"/>
<path d="M269.906 43.6094V45.5156H268.734V46.8516H269.906V51.7656C269.906 53.4062 270.562 54.0547 272.258 54.0547C272.625 54.0547 273.023 54.0156 273.211 53.9688V52.6328C273.102 52.6484 272.812 52.6719 272.633 52.6719C271.922 52.6719 271.594 52.3281 271.594 51.5938V46.8516H273.219V45.5156H271.594V43.6094H269.906Z" fill="white"/>
<path d="M274.719 54H276.414V49.1406C276.414 47.7812 277.211 46.875 278.531 46.875C279.773 46.875 280.406 47.6406 280.406 48.9062V54H282.102V48.5781C282.102 46.6641 280.984 45.4219 279.117 45.4219C277.82 45.4219 276.945 45.9453 276.438 46.9453H276.398V42.2188H274.719V54Z" fill="white"/>
<path d="M287.336 46.7891C288.57 46.7891 289.406 47.6641 289.445 48.9844H285.141C285.234 47.6797 286.117 46.7891 287.336 46.7891ZM289.438 51.5156C289.203 52.2578 288.43 52.7266 287.445 52.7266C286.055 52.7266 285.133 51.7578 285.133 50.2891V50.1875H291.141V49.5938C291.141 47.0234 289.672 45.4062 287.344 45.4062C284.969 45.4062 283.422 47.1328 283.422 49.7891C283.422 52.4453 284.953 54.1016 287.414 54.1016C289.32 54.1016 290.812 53.0391 291.055 51.5156H289.438Z" fill="white"/>
<path d="M301.469 54L305.492 42.7266H303.625L300.547 52.0312H300.5L297.43 42.7266H295.531L299.555 54H301.469Z" fill="white"/>
<path d="M306.633 54H308.328V45.5156H306.633V54ZM307.484 44.3047C308.031 44.3047 308.477 43.8672 308.477 43.3281C308.477 42.7734 308.031 42.3516 307.484 42.3516C306.938 42.3516 306.492 42.7734 306.492 43.3281C306.492 43.8672 306.938 44.3047 307.484 44.3047Z" fill="white"/>
<path d="M310.133 54H311.828V48.9375C311.828 47.7422 312.531 46.9688 313.648 46.9688C313.984 46.9688 314.281 47.0156 314.422 47.0703V45.4844C314.289 45.4531 314.078 45.4297 313.828 45.4297C312.828 45.4297 312.047 46 311.781 46.9453H311.75V45.5156H310.133V54Z" fill="white"/>
<path d="M318.75 52.5703C317.383 52.5703 316.5 51.4688 316.5 49.7344C316.5 47.9922 317.383 46.8672 318.75 46.8672C320.125 46.8672 321.039 48.0156 321.039 49.7344C321.039 51.4453 320.125 52.5703 318.75 52.5703ZM318.758 57.0547C321.203 57.0547 322.727 55.8047 322.727 53.7812V45.5156H321.086V46.9219H321.055C320.531 45.9844 319.547 45.4297 318.344 45.4297C316.172 45.4297 314.766 47.1094 314.766 49.7266C314.766 52.3125 316.188 53.9766 318.305 53.9766C319.508 53.9766 320.508 53.4297 321 52.5156H321.039V53.9141C321.039 55.0234 320.172 55.7266 318.828 55.7266C317.789 55.7266 317 55.3125 316.812 54.6562H315.102C315.266 56.1094 316.719 57.0547 318.758 57.0547Z" fill="white"/>
<path d="M324.523 54H326.219V45.5156H324.523V54ZM325.375 44.3047C325.922 44.3047 326.367 43.8672 326.367 43.3281C326.367 42.7734 325.922 42.3516 325.375 42.3516C324.828 42.3516 324.383 42.7734 324.383 43.3281C324.383 43.8672 324.828 44.3047 325.375 44.3047Z" fill="white"/>
<path d="M328.023 54H329.719V49.1016C329.719 47.7656 330.484 46.875 331.766 46.875C333.008 46.875 333.602 47.5938 333.602 48.8828V54H335.297V48.5625C335.297 46.6094 334.227 45.4219 332.352 45.4219C331.039 45.4219 330.188 45.9453 329.672 46.9453H329.641V45.5156H328.023V54Z" fill="white"/>
<path d="M10.75 70.3125V69.1641H6.10938V70.5781H9.02344V70.7734C9 72.4844 7.73438 73.6562 5.90625 73.6562C3.75781 73.6562 2.42188 71.9922 2.42188 69.2969C2.42188 66.6484 3.71875 65.0703 5.875 65.0703C7.34375 65.0703 8.44531 65.875 8.86719 67.2734H10.6641C10.2734 65.0234 8.375 63.5391 5.86719 63.5391C2.65625 63.5391 0.632812 65.7578 0.632812 69.3125C0.632812 72.9297 2.66406 75.1875 5.89062 75.1875C8.94531 75.1875 10.75 73.3672 10.75 70.3125Z" fill="white"/>
<path d="M12.2891 75H13.9844V69.9375C13.9844 68.7422 14.6875 67.9688 15.8047 67.9688C16.1406 67.9688 16.4375 68.0156 16.5781 68.0703V66.4844C16.4453 66.4531 16.2344 66.4297 15.9844 66.4297C14.9844 66.4297 14.2031 67 13.9375 67.9453H13.9062V66.5156H12.2891V75Z" fill="white"/>
<path d="M20.9375 75.1016C23.3906 75.1016 24.9453 73.4297 24.9453 70.7578C24.9453 68.0859 23.3828 66.4062 20.9375 66.4062C18.4922 66.4062 16.9219 68.0938 16.9219 70.7578C16.9219 73.4297 18.4844 75.1016 20.9375 75.1016ZM20.9375 73.6953C19.5 73.6953 18.6406 72.6094 18.6406 70.7578C18.6406 68.9141 19.5 67.8125 20.9375 67.8125C22.375 67.8125 23.2266 68.9062 23.2266 70.7578C23.2266 72.6094 22.375 73.6953 20.9375 73.6953Z" fill="white"/>
<path d="M33.5391 66.5156H31.8438V71.4062C31.8438 72.75 31.0703 73.6328 29.8047 73.6328C28.5781 73.6328 27.9609 72.9375 27.9609 71.6328V66.5156H26.2656V71.9531C26.2656 73.8984 27.3906 75.0938 29.2422 75.0938C30.5391 75.0938 31.3984 74.5547 31.8906 73.5469H31.9219V75H33.5391V66.5156Z" fill="white"/>
<path d="M39.6484 66.4297C38.4688 66.4297 37.4219 67.0078 36.9453 67.9219H36.9062V66.5156H35.2734V77.8125H36.9688V73.6094H37C37.5078 74.5469 38.4688 75.0859 39.6875 75.0859C41.8203 75.0859 43.2344 73.3828 43.2344 70.7578C43.2344 68.125 41.8125 66.4297 39.6484 66.4297ZM39.2188 73.6484C37.8672 73.6484 36.9609 72.4922 36.9531 70.7578C36.9609 69.0312 37.875 67.8672 39.2188 67.8672C40.5938 67.8672 41.5 69.0078 41.5 70.7578C41.5 72.5156 40.5938 73.6484 39.2188 73.6484Z" fill="white"/>
<path d="M45.4297 75.0859C46.0078 75.0859 46.4531 74.6328 46.4531 74.0625C46.4531 73.4844 46.0078 73.0391 45.4297 73.0391C44.8594 73.0391 44.4062 73.4844 44.4062 74.0625C44.4062 74.6328 44.8594 75.0859 45.4297 75.0859Z" fill="white"/>
</g>
</svg>
