<svg width="337" height="13" viewBox="0 0 337 13" fill="none" xmlns="http://www.w3.org/2000/svg">
<g opacity="0.7">
<path d="M6.03125 12V2.67188H9.33594V0.726562H0.375V2.67188H3.67188V12H6.03125Z" fill="white"/>
<path d="M13 2.57031H15.0469C16.2188 2.57031 16.9531 3.27344 16.9531 4.36719C16.9531 5.48438 16.2578 6.16406 15.0703 6.16406H13V2.57031ZM13 7.875H14.9297L17.0312 12H19.7031L17.3281 7.52344C18.625 7.01562 19.375 5.76562 19.375 4.32031C19.375 2.09375 17.8906 0.726562 15.2969 0.726562H10.6406V12H13V7.875Z" fill="white"/>
<path d="M28.3047 12H30.8125L26.8906 0.726562H24.1172L20.2031 12H22.625L23.4844 9.26562H27.4453L28.3047 12ZM25.4375 2.88281H25.4922L26.9375 7.5H23.9922L25.4375 2.88281Z" fill="white"/>
<path d="M36.6641 12L40.4531 0.726562H37.8828L35.3047 9.57031H35.25L32.6719 0.726562H30.0312L33.8203 12H36.6641Z" fill="white"/>
<path d="M49.0781 10.0469H43.9688V7.20312H48.7891V5.39062H43.9688V2.67188H49.0781V0.726562H41.6094V12H49.0781V10.0469Z" fill="white"/>
<path d="M58.0703 10.0469H53.1406V0.726562H50.7812V12H58.0703V10.0469Z" fill="white"/>
<path d="M69.6562 4.29688H69.7266L71.8672 12H74.0938L77.0859 0.726562H74.6406L72.8594 8.89062H72.7969L70.6875 0.726562H68.6953L66.5859 8.89062H66.5234L64.75 0.726562H62.3047L65.2891 12H67.5156L69.6562 4.29688Z" fill="white"/>
<path d="M80.7188 12V0.726562H78.3594V12H80.7188Z" fill="white"/>
<path d="M87.6875 12V2.67188H90.9922V0.726562H82.0312V2.67188H85.3281V12H87.6875Z" fill="white"/>
<path d="M102.094 12V0.726562H99.7344V5.30469H94.6562V0.726562H92.2969V12H94.6562V7.25H99.7344V12H102.094Z" fill="white"/>
<path d="M113.32 12L117.109 0.726562H114.539L111.961 9.57031H111.906L109.328 0.726562H106.688L110.477 12H113.32Z" fill="white"/>
<path d="M120.625 12V0.726562H118.266V12H120.625Z" fill="white"/>
<path d="M124.859 2.57031H126.906C128.078 2.57031 128.812 3.27344 128.812 4.36719C128.812 5.48438 128.117 6.16406 126.93 6.16406H124.859V2.57031ZM124.859 7.875H126.789L128.891 12H131.562L129.188 7.52344C130.484 7.01562 131.234 5.76562 131.234 4.32031C131.234 2.09375 129.75 0.726562 127.156 0.726562H122.5V12H124.859V7.875Z" fill="white"/>
<path d="M142.859 7.26562V5.99219H138.109V7.71094H140.562L140.555 7.89062C140.508 9.28906 139.438 10.2344 137.898 10.2344C136.023 10.2344 134.836 8.74219 134.836 6.29688C134.836 3.89844 135.953 2.48438 137.812 2.48438C139.086 2.48438 140.047 3.1875 140.391 4.36719H142.758C142.422 2.08594 140.438 0.53125 137.805 0.53125C134.492 0.53125 132.43 2.71875 132.43 6.32812C132.43 9.99219 134.492 12.1953 137.859 12.1953C141 12.1953 142.859 10.3359 142.859 7.26562Z" fill="white"/>
<path d="M146.781 12V0.726562H144.422V12H146.781Z" fill="white"/>
<path d="M150.914 12V4.61719H150.984L156.258 12H158.211V0.726562H155.953V8.07031H155.891L150.625 0.726562H148.656V12H150.914Z" fill="white"/>
<path d="M168.617 0.53125C165.273 0.53125 163.18 2.77344 163.18 6.36719C163.18 9.95312 165.273 12.1953 168.617 12.1953C171.953 12.1953 174.055 9.95312 174.055 6.36719C174.055 2.77344 171.953 0.53125 168.617 0.53125ZM168.617 2.5C170.461 2.5 171.641 4 171.641 6.36719C171.641 8.72656 170.461 10.2188 168.617 10.2188C166.766 10.2188 165.586 8.72656 165.586 6.36719C165.586 4 166.773 2.5 168.617 2.5Z" fill="white"/>
<path d="M177.938 12V7.5625H182.523V5.69531H177.938V2.67188H182.961V0.726562H175.578V12H177.938Z" fill="white"/>
<path d="M190.156 2.57031H192.203C193.375 2.57031 194.109 3.27344 194.109 4.36719C194.109 5.48438 193.414 6.16406 192.227 6.16406H190.156V2.57031ZM190.156 7.875H192.086L194.188 12H196.859L194.484 7.52344C195.781 7.01562 196.531 5.76562 196.531 4.32031C196.531 2.09375 195.047 0.726562 192.453 0.726562H187.797V12H190.156V7.875Z" fill="white"/>
<path d="M200.438 12V0.726562H198.078V12H200.438Z" fill="white"/>
<path d="M207.297 12.1953C210.062 12.1953 211.992 10.6016 212.258 8.08594H209.961C209.711 9.42188 208.703 10.2422 207.305 10.2422C205.5 10.2422 204.367 8.75781 204.367 6.35156C204.367 3.97656 205.516 2.48438 207.297 2.48438C208.672 2.48438 209.734 3.39062 209.953 4.77344H212.25C212.07 2.25 210.008 0.53125 207.297 0.53125C204.031 0.53125 201.961 2.72656 201.961 6.35938C201.961 10 204.016 12.1953 207.297 12.1953Z" fill="white"/>
<path d="M223.516 12V0.726562H221.156V5.30469H216.078V0.726562H213.719V12H216.078V7.25H221.156V12H223.516Z" fill="white"/>
<path d="M232.773 12H235.281L231.359 0.726562H228.586L224.672 12H227.094L227.953 9.26562H231.914L232.773 12ZM229.906 2.88281H229.961L231.406 7.5H228.461L229.906 2.88281Z" fill="white"/>
<path d="M238.797 2.57031H240.844C242.016 2.57031 242.75 3.27344 242.75 4.36719C242.75 5.48438 242.055 6.16406 240.867 6.16406H238.797V2.57031ZM238.797 7.875H240.727L242.828 12H245.5L243.125 7.52344C244.422 7.01562 245.172 5.76562 245.172 4.32031C245.172 2.09375 243.688 0.726562 241.094 0.726562H236.438V12H238.797V7.875Z" fill="white"/>
<path d="M246.719 0.726562V12H251.062C254.445 12 256.438 9.89844 256.438 6.32031C256.438 2.74219 254.445 0.726562 251.062 0.726562H246.719ZM249.078 2.67188H250.781C252.859 2.67188 254.031 3.96875 254.031 6.32812C254.031 8.76562 252.891 10.0469 250.781 10.0469H249.078V2.67188Z" fill="white"/>
<path d="M266.453 12C268.859 12 270.352 10.7578 270.352 8.77344C270.352 7.28125 269.227 6.16406 267.695 6.04688V5.98438C268.891 5.80469 269.812 4.77344 269.812 3.53906C269.812 1.8125 268.484 0.726562 266.367 0.726562H261.391V12H266.453ZM263.75 2.48438H265.758C266.859 2.48438 267.492 3 267.492 3.90625C267.492 4.85938 266.773 5.41406 265.516 5.41406H263.75V2.48438ZM263.75 10.2422V6.96875H265.797C267.188 6.96875 267.945 7.53125 267.945 8.58594C267.945 9.66406 267.211 10.2422 265.852 10.2422H263.75Z" fill="white"/>
<path d="M274.062 2.57031H276.109C277.281 2.57031 278.016 3.27344 278.016 4.36719C278.016 5.48438 277.32 6.16406 276.133 6.16406H274.062V2.57031ZM274.062 7.875H275.992L278.094 12H280.766L278.391 7.52344C279.688 7.01562 280.438 5.76562 280.438 4.32031C280.438 2.09375 278.953 0.726562 276.359 0.726562H271.703V12H274.062V7.875Z" fill="white"/>
<path d="M289.367 12H291.875L287.953 0.726562H285.18L281.266 12H283.688L284.547 9.26562H288.508L289.367 12ZM286.5 2.88281H286.555L288 7.5H285.055L286.5 2.88281Z" fill="white"/>
<path d="M295.289 12V4.61719H295.359L300.633 12H302.586V0.726562H300.328V8.07031H300.266L295 0.726562H293.031V12H295.289Z" fill="white"/>
<path d="M304.047 8.78906C304.117 10.9062 305.844 12.1953 308.555 12.1953C311.352 12.1953 313.125 10.8125 313.125 8.625C313.125 6.90625 312.141 5.9375 309.883 5.45312L308.516 5.16406C307.219 4.86719 306.672 4.47656 306.672 3.78125C306.672 2.94531 307.453 2.39062 308.617 2.39062C309.797 2.39062 310.633 2.96875 310.711 3.92188H312.922C312.883 1.88281 311.234 0.53125 308.609 0.53125C306.094 0.53125 304.297 1.90625 304.297 3.98438C304.297 5.63281 305.32 6.6875 307.398 7.13281L308.867 7.45312C310.227 7.75781 310.766 8.16406 310.766 8.89844C310.766 9.72656 309.906 10.3281 308.648 10.3281C307.398 10.3281 306.43 9.71875 306.32 8.78906H304.047Z" fill="white"/>
<path d="M319.664 0.53125C316.32 0.53125 314.227 2.77344 314.227 6.36719C314.227 9.95312 316.32 12.1953 319.664 12.1953C323 12.1953 325.102 9.95312 325.102 6.36719C325.102 2.77344 323 0.53125 319.664 0.53125ZM319.664 2.5C321.508 2.5 322.688 4 322.688 6.36719C322.688 8.72656 321.508 10.2188 319.664 10.2188C317.812 10.2188 316.633 8.72656 316.633 6.36719C316.633 4 317.82 2.5 319.664 2.5Z" fill="white"/>
<path d="M328.883 12V4.61719H328.953L334.227 12H336.18V0.726562H333.922V8.07031H333.859L328.594 0.726562H326.625V12H328.883Z" fill="white"/>
</g>
</svg>
