<svg width="537" height="169" viewBox="0 0 537 169" fill="none" xmlns="http://www.w3.org/2000/svg">
<path d="M33.1641 59.6094L52.1094 3.24219H39.2578L26.3672 47.4609H26.0938L13.2031 3.24219H0L18.9453 59.6094H33.1641Z" fill="url(#paint0_linear_103_106)"/>
<path d="M57.2656 59.6094H68.6719V16.6016H57.2656V59.6094ZM62.9688 11.9141C66.3672 11.9141 69.1406 9.33594 69.1406 5.9375C69.1406 2.53906 66.3672 0 62.9688 0C59.6094 0 56.8359 2.53906 56.8359 5.9375C56.8359 9.33594 59.6094 11.9141 62.9688 11.9141Z" fill="url(#paint1_linear_103_106)"/>
<path d="M76.6016 59.6094H88.0078V35.5469C88.0078 29.5312 91.4062 25.9375 97.1875 25.9375C98.8672 25.9375 100.43 26.2109 101.406 26.6016V16.5234C100.586 16.25 99.4141 16.0938 98.0859 16.0938C93.0078 16.0938 89.2969 18.9844 87.8516 24.2969H87.6172V16.6016H76.6016V59.6094Z" fill="url(#paint2_linear_103_106)"/>
<path d="M124.609 50.5078C118.672 50.5078 114.961 45.8203 114.961 38.0078C114.961 30.2344 118.711 25.3125 124.609 25.3125C130.547 25.3125 134.375 30.3125 134.375 38.0469C134.375 45.7422 130.547 50.5078 124.609 50.5078ZM124.492 75.3516C137.422 75.3516 145.742 68.8672 145.742 58.6328V16.6016H134.492V23.9453H134.297C132.031 19.1797 127.148 16.0938 120.977 16.0938C110.078 16.0938 103.281 24.4922 103.281 37.9688C103.281 51.2109 110.312 59.3359 120.781 59.3359C126.992 59.3359 132.031 56.4062 134.102 51.7969H134.336V59.4922C134.336 64.3359 130.547 67.3047 124.766 67.3047C120.273 67.3047 116.68 65.5078 115.938 62.6562H104.688C105.273 70.3906 113.203 75.3516 124.492 75.3516Z" fill="url(#paint3_linear_103_106)"/>
<path d="M153.672 59.6094H165.078V16.6016H153.672V59.6094ZM159.375 11.9141C162.773 11.9141 165.547 9.33594 165.547 5.9375C165.547 2.53906 162.773 0 159.375 0C156.016 0 153.242 2.53906 153.242 5.9375C153.242 9.33594 156.016 11.9141 159.375 11.9141Z" fill="url(#paint4_linear_103_106)"/>
<path d="M173.008 59.6094H184.414V35.0781C184.414 29.375 187.695 25.4688 193.164 25.4688C198.555 25.4688 201.211 28.7109 201.211 34.4141V59.6094H212.617V32.0312C212.617 21.9922 207.227 15.9766 197.695 15.9766C191.094 15.9766 186.719 18.8672 184.258 24.2969H184.023V16.6016H173.008V59.6094Z" fill="url(#paint5_linear_103_106)"/>
<path d="M288.594 35.9375V29.5703H264.844V38.1641H277.109L277.07 39.0625C276.836 46.0547 271.484 50.7812 263.789 50.7812C254.414 50.7812 248.477 43.3203 248.477 31.0938C248.477 19.1016 254.062 12.0312 263.359 12.0312C269.727 12.0312 274.531 15.5469 276.25 21.4453H288.086C286.406 10.0391 276.484 2.26562 263.32 2.26562C246.758 2.26562 236.445 13.2031 236.445 31.25C236.445 49.5703 246.758 60.5859 263.594 60.5859C279.297 60.5859 288.594 51.2891 288.594 35.9375Z" fill="url(#paint6_linear_103_106)"/>
<path d="M311.641 51.7969C307.5 51.7969 304.805 49.8047 304.805 46.6406C304.805 43.4766 307.344 41.6016 312.109 41.2891L321.133 40.6641V43.8281C321.133 48.5156 316.914 51.7969 311.641 51.7969ZM307.93 60.1172C313.438 60.1172 318.75 57.4609 321.094 52.9688H321.328V59.6094H332.344V30.1172C332.344 21.5234 325.117 15.8594 314.062 15.8594C303.32 15.8594 295.898 21.5234 295.586 29.7266H306.016C306.562 26.6016 309.453 24.4141 313.594 24.4141C318.281 24.4141 321.133 26.6797 321.133 30.8203V33.6719L310.391 34.3359C299.414 35 293.438 39.4141 293.438 47.2266C293.438 54.9219 299.648 60.1172 307.93 60.1172Z" fill="url(#paint7_linear_103_106)"/>
<path d="M340.352 59.6094H351.758V0.546875H340.352V59.6094Z" fill="url(#paint8_linear_103_106)"/>
<path d="M376.25 51.7969C372.109 51.7969 369.414 49.8047 369.414 46.6406C369.414 43.4766 371.953 41.6016 376.719 41.2891L385.742 40.6641V43.8281C385.742 48.5156 381.523 51.7969 376.25 51.7969ZM372.539 60.1172C378.047 60.1172 383.359 57.4609 385.703 52.9688H385.938V59.6094H396.953V30.1172C396.953 21.5234 389.727 15.8594 378.672 15.8594C367.93 15.8594 360.508 21.5234 360.195 29.7266H370.625C371.172 26.6016 374.062 24.4141 378.203 24.4141C382.891 24.4141 385.742 26.6797 385.742 30.8203V33.6719L375 34.3359C364.023 35 358.047 39.4141 358.047 47.2266C358.047 54.9219 364.258 60.1172 372.539 60.1172Z" fill="url(#paint9_linear_103_106)"/>
<path d="M443.516 32.4609C442.969 22.8906 435.586 15.8594 424.023 15.8594C411.25 15.8594 403.047 24.4531 403.047 38.0859C403.047 51.9141 411.25 60.3516 424.102 60.3516C435.391 60.3516 442.891 53.9844 443.555 43.9844H432.93C432.188 48.7109 429.023 51.3281 424.219 51.3281C418.32 51.3281 414.609 46.4844 414.609 38.0859C414.609 29.8438 418.32 24.8438 424.18 24.8438C429.141 24.8438 432.266 28.0078 432.891 32.4609H443.516Z" fill="url(#paint10_linear_103_106)"/>
<path d="M452.305 7.03125V16.6016H446.484V25.2344H452.305V48.0078C452.305 56.4062 456.211 59.7656 466.172 59.7656C468.477 59.7656 470.508 59.5312 471.68 59.2969V50.8594C470.977 50.9766 469.844 51.0547 468.828 51.0547C465.352 51.0547 463.711 49.4531 463.711 46.1328V25.2344H471.68V16.6016H463.711V7.03125H452.305Z" fill="url(#paint11_linear_103_106)"/>
<path d="M478.438 59.6094H489.844V16.6016H478.438V59.6094ZM484.141 11.9141C487.539 11.9141 490.312 9.33594 490.312 5.9375C490.312 2.53906 487.539 0 484.141 0C480.781 0 478.008 2.53906 478.008 5.9375C478.008 9.33594 480.781 11.9141 484.141 11.9141Z" fill="url(#paint12_linear_103_106)"/>
<path d="M536.641 32.4609C536.094 22.8906 528.711 15.8594 517.148 15.8594C504.375 15.8594 496.172 24.4531 496.172 38.0859C496.172 51.9141 504.375 60.3516 517.227 60.3516C528.516 60.3516 536.016 53.9844 536.68 43.9844H526.055C525.312 48.7109 522.148 51.3281 517.344 51.3281C511.445 51.3281 507.734 46.4844 507.734 38.0859C507.734 29.8438 511.445 24.8438 517.305 24.8438C522.266 24.8438 525.391 28.0078 526.016 32.4609H536.641Z" fill="url(#paint13_linear_103_106)"/>
<path d="M24.6094 154.609V103.086H43.4766V98.2422H0.390625V103.086H19.2578V154.609H24.6094Z" fill="url(#paint14_linear_103_106)"/>
<path d="M43.0078 154.609H48.1641V128.516C48.1641 121.719 51.9922 117.031 57.9688 117.031C59.7656 117.031 61.25 117.305 61.9531 117.617V112.5C61.2891 112.305 60.0391 112.07 58.6719 112.07C53.4375 112.07 49.4531 115 48.0078 120H47.8516V112.539H43.0078V154.609Z" fill="url(#paint15_linear_103_106)"/>
<path d="M79.6484 150.547C73.7891 150.547 69.8047 147.461 69.8047 142.93C69.8047 138.203 73.5547 135.469 80.625 135L92.9297 134.141V138.789C92.9297 145.43 87.1875 150.547 79.6484 150.547ZM78.6328 155.078C85.0781 155.078 90.7812 151.68 93.0469 146.562H93.1641V154.609H98.0859V125.938C98.0859 117.461 91.9531 112.07 82.3047 112.07C73.4766 112.07 66.8359 117.305 66.4062 124.688H71.3672C72.3047 119.688 76.4062 116.68 82.2656 116.68C89.0625 116.68 92.9297 120.234 92.9297 126.367V129.961L80 130.82C69.9219 131.523 64.5312 135.703 64.5312 142.891C64.5312 150.156 70.2344 155.078 78.6328 155.078Z" fill="url(#paint16_linear_103_106)"/>
<path d="M140 112.539H134.609L121.641 149.102H121.523L108.594 112.539H103.164L118.867 154.609H124.336L140 112.539Z" fill="url(#paint17_linear_103_106)"/>
<path d="M161.055 116.641C168.672 116.641 173.828 122.266 173.906 130.625H147.734C148.203 122.266 153.516 116.641 161.055 116.641ZM173.633 142.695C172.383 147.305 167.891 150.508 161.562 150.508C153.203 150.508 147.734 144.648 147.734 135.117V134.844H179.297V132.578C179.297 120.078 172.188 112.07 161.133 112.07C149.805 112.07 142.383 120.625 142.383 133.672C142.383 146.914 149.805 155.078 161.445 155.078C170.586 155.078 177.5 149.883 178.75 142.695H173.633Z" fill="url(#paint18_linear_103_106)"/>
<path d="M186.914 154.609H192.07V95.7812H186.914V154.609Z" fill="url(#paint19_linear_103_106)"/>
<path d="M232.93 150.547C227.07 150.547 223.086 147.461 223.086 142.93C223.086 138.203 226.836 135.469 233.906 135L246.211 134.141V138.789C246.211 145.43 240.469 150.547 232.93 150.547ZM231.914 155.078C238.359 155.078 244.062 151.68 246.328 146.562H246.445V154.609H251.367V125.938C251.367 117.461 245.234 112.07 235.586 112.07C226.758 112.07 220.117 117.305 219.688 124.688H224.648C225.586 119.688 229.688 116.68 235.547 116.68C242.344 116.68 246.211 120.234 246.211 126.367V129.961L233.281 130.82C223.203 131.523 217.812 135.703 217.812 142.891C217.812 150.156 223.516 155.078 231.914 155.078Z" fill="url(#paint20_linear_103_106)"/>
<path d="M262.695 102.461V112.539H256.68V116.875H262.695V144.258C262.695 151.836 265.508 154.844 272.461 154.844C273.555 154.844 275.82 154.727 276.367 154.57V150.156C276.055 150.195 274.023 150.312 273.477 150.312C269.57 150.312 267.852 148.438 267.852 144.062V116.875H276.172V112.539H267.852V102.461H262.695Z" fill="url(#paint21_linear_103_106)"/>
<path d="M299.414 139.297C300 148.984 308.281 155.508 320.078 155.508C332.539 155.508 340.508 149.023 340.508 139.141C340.508 131.289 335.742 126.953 324.414 124.102L318.32 122.539C310.039 120.43 306.523 117.578 306.523 112.734C306.523 106.523 312.305 102.188 320.117 102.188C328.125 102.188 333.75 106.406 334.258 112.773H339.609C339.297 103.828 331.25 97.3438 320.273 97.3438C309.18 97.3438 300.977 103.828 300.977 112.93C300.977 120.352 305.625 124.766 316.055 127.422L323.047 129.219C331.406 131.328 335.039 134.453 335.039 139.727C335.039 146.055 328.984 150.664 320.547 150.664C311.719 150.664 305.352 146.055 304.766 139.297H299.414Z" fill="url(#paint22_linear_103_106)"/>
<path d="M367.5 112.07C360.82 112.07 355.156 115.898 352.93 121.25H352.812V112.539H347.93V168.555H353.086V145.938H353.203C355.547 151.406 360.82 155.078 367.578 155.078C378.164 155.078 385.43 146.406 385.43 133.555C385.43 120.742 378.125 112.07 367.5 112.07ZM366.602 150.43C358.594 150.43 353.047 143.594 353.047 133.555C353.047 123.594 358.594 116.68 366.602 116.68C374.727 116.68 380.156 123.477 380.156 133.594C380.156 143.711 374.727 150.43 366.602 150.43Z" fill="url(#paint23_linear_103_106)"/>
<path d="M405.898 150.547C400.039 150.547 396.055 147.461 396.055 142.93C396.055 138.203 399.805 135.469 406.875 135L419.18 134.141V138.789C419.18 145.43 413.438 150.547 405.898 150.547ZM404.883 155.078C411.328 155.078 417.031 151.68 419.297 146.562H419.414V154.609H424.336V125.938C424.336 117.461 418.203 112.07 408.555 112.07C399.727 112.07 393.086 117.305 392.656 124.688H397.617C398.555 119.688 402.656 116.68 408.516 116.68C415.312 116.68 419.18 120.234 419.18 126.367V129.961L406.25 130.82C396.172 131.523 390.781 135.703 390.781 142.891C390.781 150.156 396.484 155.078 404.883 155.078Z" fill="url(#paint24_linear_103_106)"/>
<path d="M467.5 125.781C466.484 118.359 460.039 112.07 450.195 112.07C438.789 112.07 431.289 120.547 431.289 133.555C431.289 146.836 438.828 155.078 450.273 155.078C459.57 155.078 466.328 149.57 467.539 141.641H462.422C461.211 147.148 456.719 150.43 450.273 150.43C442.031 150.43 436.562 143.984 436.562 133.555C436.562 123.32 441.992 116.68 450.234 116.68C456.953 116.68 461.367 120.625 462.383 125.781H467.5Z" fill="url(#paint25_linear_103_106)"/>
<path d="M490.82 116.641C498.438 116.641 503.594 122.266 503.672 130.625H477.5C477.969 122.266 483.281 116.641 490.82 116.641ZM503.398 142.695C502.148 147.305 497.656 150.508 491.328 150.508C482.969 150.508 477.5 144.648 477.5 135.117V134.844H509.062V132.578C509.062 120.078 501.953 112.07 490.898 112.07C479.57 112.07 472.148 120.625 472.148 133.672C472.148 146.914 479.57 155.078 491.211 155.078C500.352 155.078 507.266 149.883 508.516 142.695H503.398Z" fill="url(#paint26_linear_103_106)"/>
<defs>
<linearGradient id="paint0_linear_103_106" x1="344.906" y1="26.1093" x2="615.406" y2="222.609" gradientUnits="userSpaceOnUse">
<stop offset="0.359375" stop-color="white"/>
<stop offset="1" stop-color="#8A43FF" stop-opacity="0.02"/>
</linearGradient>
<linearGradient id="paint1_linear_103_106" x1="344.906" y1="26.1093" x2="615.406" y2="222.609" gradientUnits="userSpaceOnUse">
<stop offset="0.359375" stop-color="white"/>
<stop offset="1" stop-color="#8A43FF" stop-opacity="0.02"/>
</linearGradient>
<linearGradient id="paint2_linear_103_106" x1="344.906" y1="26.1093" x2="615.406" y2="222.609" gradientUnits="userSpaceOnUse">
<stop offset="0.359375" stop-color="white"/>
<stop offset="1" stop-color="#8A43FF" stop-opacity="0.02"/>
</linearGradient>
<linearGradient id="paint3_linear_103_106" x1="344.906" y1="26.1093" x2="615.406" y2="222.609" gradientUnits="userSpaceOnUse">
<stop offset="0.359375" stop-color="white"/>
<stop offset="1" stop-color="#8A43FF" stop-opacity="0.02"/>
</linearGradient>
<linearGradient id="paint4_linear_103_106" x1="344.906" y1="26.1093" x2="615.406" y2="222.609" gradientUnits="userSpaceOnUse">
<stop offset="0.359375" stop-color="white"/>
<stop offset="1" stop-color="#8A43FF" stop-opacity="0.02"/>
</linearGradient>
<linearGradient id="paint5_linear_103_106" x1="344.906" y1="26.1093" x2="615.406" y2="222.609" gradientUnits="userSpaceOnUse">
<stop offset="0.359375" stop-color="white"/>
<stop offset="1" stop-color="#8A43FF" stop-opacity="0.02"/>
</linearGradient>
<linearGradient id="paint6_linear_103_106" x1="344.906" y1="26.1093" x2="615.406" y2="222.609" gradientUnits="userSpaceOnUse">
<stop offset="0.359375" stop-color="white"/>
<stop offset="1" stop-color="#8A43FF" stop-opacity="0.02"/>
</linearGradient>
<linearGradient id="paint7_linear_103_106" x1="344.906" y1="26.1093" x2="615.406" y2="222.609" gradientUnits="userSpaceOnUse">
<stop offset="0.359375" stop-color="white"/>
<stop offset="1" stop-color="#8A43FF" stop-opacity="0.02"/>
</linearGradient>
<linearGradient id="paint8_linear_103_106" x1="344.906" y1="26.1093" x2="615.406" y2="222.609" gradientUnits="userSpaceOnUse">
<stop offset="0.359375" stop-color="white"/>
<stop offset="1" stop-color="#8A43FF" stop-opacity="0.02"/>
</linearGradient>
<linearGradient id="paint9_linear_103_106" x1="344.906" y1="26.1093" x2="615.406" y2="222.609" gradientUnits="userSpaceOnUse">
<stop offset="0.359375" stop-color="white"/>
<stop offset="1" stop-color="#8A43FF" stop-opacity="0.02"/>
</linearGradient>
<linearGradient id="paint10_linear_103_106" x1="344.906" y1="26.1093" x2="615.406" y2="222.609" gradientUnits="userSpaceOnUse">
<stop offset="0.359375" stop-color="white"/>
<stop offset="1" stop-color="#8A43FF" stop-opacity="0.02"/>
</linearGradient>
<linearGradient id="paint11_linear_103_106" x1="344.906" y1="26.1093" x2="615.406" y2="222.609" gradientUnits="userSpaceOnUse">
<stop offset="0.359375" stop-color="white"/>
<stop offset="1" stop-color="#8A43FF" stop-opacity="0.02"/>
</linearGradient>
<linearGradient id="paint12_linear_103_106" x1="344.906" y1="26.1093" x2="615.406" y2="222.609" gradientUnits="userSpaceOnUse">
<stop offset="0.359375" stop-color="white"/>
<stop offset="1" stop-color="#8A43FF" stop-opacity="0.02"/>
</linearGradient>
<linearGradient id="paint13_linear_103_106" x1="344.906" y1="26.1093" x2="615.406" y2="222.609" gradientUnits="userSpaceOnUse">
<stop offset="0.359375" stop-color="white"/>
<stop offset="1" stop-color="#8A43FF" stop-opacity="0.02"/>
</linearGradient>
<linearGradient id="paint14_linear_103_106" x1="344.906" y1="26.1093" x2="615.406" y2="222.609" gradientUnits="userSpaceOnUse">
<stop offset="0.359375" stop-color="white"/>
<stop offset="1" stop-color="#8A43FF" stop-opacity="0.02"/>
</linearGradient>
<linearGradient id="paint15_linear_103_106" x1="344.906" y1="26.1093" x2="615.406" y2="222.609" gradientUnits="userSpaceOnUse">
<stop offset="0.359375" stop-color="white"/>
<stop offset="1" stop-color="#8A43FF" stop-opacity="0.02"/>
</linearGradient>
<linearGradient id="paint16_linear_103_106" x1="344.906" y1="26.1093" x2="615.406" y2="222.609" gradientUnits="userSpaceOnUse">
<stop offset="0.359375" stop-color="white"/>
<stop offset="1" stop-color="#8A43FF" stop-opacity="0.02"/>
</linearGradient>
<linearGradient id="paint17_linear_103_106" x1="344.906" y1="26.1093" x2="615.406" y2="222.609" gradientUnits="userSpaceOnUse">
<stop offset="0.359375" stop-color="white"/>
<stop offset="1" stop-color="#8A43FF" stop-opacity="0.02"/>
</linearGradient>
<linearGradient id="paint18_linear_103_106" x1="344.906" y1="26.1093" x2="615.406" y2="222.609" gradientUnits="userSpaceOnUse">
<stop offset="0.359375" stop-color="white"/>
<stop offset="1" stop-color="#8A43FF" stop-opacity="0.02"/>
</linearGradient>
<linearGradient id="paint19_linear_103_106" x1="344.906" y1="26.1093" x2="615.406" y2="222.609" gradientUnits="userSpaceOnUse">
<stop offset="0.359375" stop-color="white"/>
<stop offset="1" stop-color="#8A43FF" stop-opacity="0.02"/>
</linearGradient>
<linearGradient id="paint20_linear_103_106" x1="344.906" y1="26.1093" x2="615.406" y2="222.609" gradientUnits="userSpaceOnUse">
<stop offset="0.359375" stop-color="white"/>
<stop offset="1" stop-color="#8A43FF" stop-opacity="0.02"/>
</linearGradient>
<linearGradient id="paint21_linear_103_106" x1="344.906" y1="26.1093" x2="615.406" y2="222.609" gradientUnits="userSpaceOnUse">
<stop offset="0.359375" stop-color="white"/>
<stop offset="1" stop-color="#8A43FF" stop-opacity="0.02"/>
</linearGradient>
<linearGradient id="paint22_linear_103_106" x1="344.906" y1="26.1093" x2="615.406" y2="222.609" gradientUnits="userSpaceOnUse">
<stop offset="0.359375" stop-color="white"/>
<stop offset="1" stop-color="#8A43FF" stop-opacity="0.02"/>
</linearGradient>
<linearGradient id="paint23_linear_103_106" x1="344.906" y1="26.1093" x2="615.406" y2="222.609" gradientUnits="userSpaceOnUse">
<stop offset="0.359375" stop-color="white"/>
<stop offset="1" stop-color="#8A43FF" stop-opacity="0.02"/>
</linearGradient>
<linearGradient id="paint24_linear_103_106" x1="344.906" y1="26.1093" x2="615.406" y2="222.609" gradientUnits="userSpaceOnUse">
<stop offset="0.359375" stop-color="white"/>
<stop offset="1" stop-color="#8A43FF" stop-opacity="0.02"/>
</linearGradient>
<linearGradient id="paint25_linear_103_106" x1="344.906" y1="26.1093" x2="615.406" y2="222.609" gradientUnits="userSpaceOnUse">
<stop offset="0.359375" stop-color="white"/>
<stop offset="1" stop-color="#8A43FF" stop-opacity="0.02"/>
</linearGradient>
<linearGradient id="paint26_linear_103_106" x1="344.906" y1="26.1093" x2="615.406" y2="222.609" gradientUnits="userSpaceOnUse">
<stop offset="0.359375" stop-color="white"/>
<stop offset="1" stop-color="#8A43FF" stop-opacity="0.02"/>
</linearGradient>
</defs>
</svg>
