<svg width="129" height="36" viewBox="0 0 129 36" fill="none" xmlns="http://www.w3.org/2000/svg">
<path d="M6.07617 12.5176V7.61182L10.3013 0.539551H8.24268L5.18799 5.82715H5.12988L2.0752 0.539551H0L4.2168 7.61182V12.5176H6.07617Z" fill="white"/>
<path d="M13.6963 12.6255C16.3027 12.6255 17.9546 10.8491 17.9546 8.01025C17.9546 5.17139 16.2944 3.38672 13.6963 3.38672C11.0981 3.38672 9.42969 5.17969 9.42969 8.01025C9.42969 10.8491 11.0898 12.6255 13.6963 12.6255ZM13.6963 11.1313C12.1689 11.1313 11.2559 9.97754 11.2559 8.01025C11.2559 6.05127 12.1689 4.88086 13.6963 4.88086C15.2236 4.88086 16.1284 6.04297 16.1284 8.01025C16.1284 9.97754 15.2236 11.1313 13.6963 11.1313Z" fill="white"/>
<path d="M27.0854 3.50293H25.2842V8.69922C25.2842 10.127 24.4624 11.0649 23.1177 11.0649C21.8145 11.0649 21.1587 10.3262 21.1587 8.93994V3.50293H19.3574V9.28027C19.3574 11.3472 20.5527 12.6172 22.52 12.6172C23.8979 12.6172 24.811 12.0444 25.334 10.9736H25.3672V12.5176H27.0854V3.50293Z" fill="white"/>
<path d="M32.8462 12.5176H34.6475V7.31299C34.6475 5.89355 35.4609 4.94727 36.8223 4.94727C38.1421 4.94727 38.7729 5.71094 38.7729 7.08057V12.5176H40.5742V6.74023C40.5742 4.66504 39.437 3.40332 37.4448 3.40332C36.0503 3.40332 35.1455 3.95947 34.5977 5.02197H34.5645V3.50293H32.8462V12.5176Z" fill="white"/>
<path d="M46.1274 4.85596C47.439 4.85596 48.3271 5.78564 48.3687 7.18848H43.7949C43.8945 5.80225 44.8325 4.85596 46.1274 4.85596ZM48.3604 9.87793C48.1113 10.6665 47.2896 11.1646 46.2437 11.1646C44.7661 11.1646 43.7866 10.1353 43.7866 8.57471V8.4668H50.1699V7.83594C50.1699 5.10498 48.6094 3.38672 46.1357 3.38672C43.6123 3.38672 41.9688 5.22119 41.9688 8.04346C41.9688 10.8657 43.5957 12.6255 46.2104 12.6255C48.2358 12.6255 49.8213 11.4966 50.0786 9.87793H48.3604Z" fill="white"/>
<path d="M55.3745 4.85596C56.686 4.85596 57.5742 5.78564 57.6157 7.18848H53.042C53.1416 5.80225 54.0796 4.85596 55.3745 4.85596ZM57.6074 9.87793C57.3584 10.6665 56.5366 11.1646 55.4907 11.1646C54.0132 11.1646 53.0337 10.1353 53.0337 8.57471V8.4668H59.417V7.83594C59.417 5.10498 57.8564 3.38672 55.3828 3.38672C52.8594 3.38672 51.2158 5.22119 51.2158 8.04346C51.2158 10.8657 52.8428 12.6255 55.4575 12.6255C57.4829 12.6255 59.0684 11.4966 59.3257 9.87793H57.6074Z" fill="white"/>
<path d="M64.2646 12.6089C65.5845 12.6089 66.6138 12.0112 67.145 10.9902H67.1782V12.5176H68.9214V0H67.1284V4.99707H67.0869C66.5723 4.00098 65.543 3.41162 64.248 3.41162C62.0068 3.41162 60.4629 5.22949 60.4629 8.00195C60.4629 10.791 62.0068 12.6089 64.2646 12.6089ZM64.7212 4.93896C66.1655 4.93896 67.1367 6.17578 67.1367 8.01025C67.1367 9.85303 66.1655 11.0815 64.7212 11.0815C63.2603 11.0815 62.3057 9.87793 62.3057 8.01025C62.3057 6.15088 63.2686 4.93896 64.7212 4.93896Z" fill="white"/>
<path d="M74.8232 12.5176H76.6245V7.35449C76.6245 5.91016 77.4712 4.94727 78.874 4.94727C80.1938 4.94727 80.8662 5.76074 80.8662 7.10547V12.5176H82.6675V6.75684C82.6675 4.72314 81.4805 3.40332 79.4966 3.40332C78.1187 3.40332 77.189 3.95947 76.6494 5.02197H76.6079V0H74.8232V12.5176Z" fill="white"/>
<path d="M87.6064 11.1729C86.5688 11.1729 85.8965 10.6748 85.8965 9.90283C85.8965 9.10596 86.5356 8.64941 87.7642 8.57471L89.9556 8.42529V9.13086C89.9556 10.3179 88.9429 11.1729 87.6064 11.1729ZM87.125 12.6089C88.3535 12.6089 89.4741 11.9946 89.9722 11.0151H90.0137V12.5176H91.7319V6.3335C91.7319 4.54883 90.3125 3.38672 88.1128 3.38672C86.0874 3.38672 84.5767 4.56543 84.5269 6.15918H86.2119C86.3696 5.37891 87.0835 4.87256 88.063 4.87256C89.2666 4.87256 89.9556 5.43701 89.9556 6.46631V7.16357L87.5234 7.30469C85.2988 7.4458 84.0786 8.35889 84.0786 9.93604C84.0786 11.5464 85.3237 12.6089 87.125 12.6089Z" fill="white"/>
<path d="M101.195 3.50293H99.3271L97.0195 10.7412H96.978L94.6787 3.50293H92.7778L96.0317 12.5176H97.9492L101.195 3.50293Z" fill="white"/>
<path d="M105.777 4.85596C107.088 4.85596 107.977 5.78564 108.018 7.18848H103.444C103.544 5.80225 104.482 4.85596 105.777 4.85596ZM108.01 9.87793C107.761 10.6665 106.939 11.1646 105.893 11.1646C104.416 11.1646 103.436 10.1353 103.436 8.57471V8.4668H109.819V7.83594C109.819 5.10498 108.259 3.38672 105.785 3.38672C103.262 3.38672 101.618 5.22119 101.618 8.04346C101.618 10.8657 103.245 12.6255 105.86 12.6255C107.885 12.6255 109.471 11.4966 109.728 9.87793H108.01Z" fill="white"/>
<path d="M118.319 11.1729C117.282 11.1729 116.609 10.6748 116.609 9.90283C116.609 9.10596 117.249 8.64941 118.477 8.57471L120.668 8.42529V9.13086C120.668 10.3179 119.656 11.1729 118.319 11.1729ZM117.838 12.6089C119.066 12.6089 120.187 11.9946 120.685 11.0151H120.727V12.5176H122.445V6.3335C122.445 4.54883 121.025 3.38672 118.826 3.38672C116.8 3.38672 115.29 4.56543 115.24 6.15918H116.925C117.083 5.37891 117.796 4.87256 118.776 4.87256C119.979 4.87256 120.668 5.43701 120.668 6.46631V7.16357L118.236 7.30469C116.012 7.4458 114.792 8.35889 114.792 9.93604C114.792 11.5464 116.037 12.6089 117.838 12.6089Z" fill="white"/>
<path d="M124.794 1.47754V3.50293H123.549V4.92236H124.794V10.1436C124.794 11.8867 125.491 12.5757 127.292 12.5757C127.683 12.5757 128.106 12.5342 128.305 12.4844V11.0649C128.189 11.0815 127.882 11.1064 127.691 11.1064C126.936 11.1064 126.587 10.7412 126.587 9.96094V4.92236H128.313V3.50293H126.587V1.47754H124.794Z" fill="white"/>
<path d="M0.780273 32.5176H2.58154V20H0.780273V32.5176Z" fill="white"/>
<path d="M8.25928 24.856C9.5708 24.856 10.459 25.7856 10.5005 27.1885H5.92676C6.02637 25.8022 6.96436 24.856 8.25928 24.856ZM10.4922 29.8779C10.2432 30.6665 9.42139 31.1646 8.37549 31.1646C6.89795 31.1646 5.91846 30.1353 5.91846 28.5747V28.4668H12.3018V27.8359C12.3018 25.105 10.7412 23.3867 8.26758 23.3867C5.74414 23.3867 4.10059 25.2212 4.10059 28.0435C4.10059 30.8657 5.72754 32.6255 8.34229 32.6255C10.3677 32.6255 11.9531 31.4966 12.2104 29.8779H10.4922Z" fill="white"/>
<path d="M16.8838 31.1729C15.8462 31.1729 15.1738 30.6748 15.1738 29.9028C15.1738 29.106 15.813 28.6494 17.0415 28.5747L19.2329 28.4253V29.1309C19.2329 30.3179 18.2202 31.1729 16.8838 31.1729ZM16.4023 32.6089C17.6309 32.6089 18.7515 31.9946 19.2495 31.0151H19.291V32.5176H21.0093V26.3335C21.0093 24.5488 19.5898 23.3867 17.3901 23.3867C15.3647 23.3867 13.854 24.5654 13.8042 26.1592H15.4893C15.647 25.3789 16.3608 24.8726 17.3403 24.8726C18.5439 24.8726 19.2329 25.437 19.2329 26.4663V27.1636L16.8008 27.3047C14.5762 27.4458 13.356 28.3589 13.356 29.936C13.356 31.5464 14.6011 32.6089 16.4023 32.6089Z" fill="white"/>
<path d="M22.6694 26.0679C22.6694 27.313 23.4746 28.1431 25.1016 28.5415L26.7119 28.9399C27.6582 29.1807 28.0151 29.4795 28.0151 30.0522C28.0151 30.7827 27.3096 31.2476 26.189 31.2476C25.0435 31.2476 24.3462 30.7744 24.2051 29.9111H22.4287C22.5615 31.5381 23.9976 32.6255 26.0977 32.6255C28.2808 32.6255 29.8081 31.5132 29.8081 29.9028C29.8081 28.5747 29.1357 27.9189 27.3179 27.479L25.8237 27.1221C24.8691 26.8896 24.4209 26.5161 24.4209 25.9683C24.4209 25.2544 25.1016 24.7812 26.1226 24.7812C27.1519 24.7812 27.8408 25.2793 27.9155 26.0762H29.6089C29.5674 24.5073 28.1396 23.395 26.1641 23.395C24.0889 23.395 22.6694 24.4824 22.6694 26.0679Z" fill="white"/>
<path d="M31.8086 21.4775V23.5029H30.5635V24.9224H31.8086V30.1436C31.8086 31.8867 32.5059 32.5757 34.3071 32.5757C34.6973 32.5757 35.1206 32.5342 35.3198 32.4844V31.0649C35.2036 31.0815 34.8965 31.1064 34.7056 31.1064C33.9502 31.1064 33.6016 30.7412 33.6016 29.9609V24.9224H35.3281V23.5029H33.6016V21.4775H31.8086Z" fill="white"/>
<path d="M43.8032 32.5176H45.6211V20.5396H43.7866L40.6323 22.7808V24.6069L43.7617 22.3823H43.8032V32.5176Z" fill="white"/>
<path d="M52.8677 32.7417C55.5239 32.7417 57.3999 31.314 57.3999 29.2803C57.3999 27.7612 56.3291 26.5327 54.7354 26.2007V26.1592C56.0635 25.7773 56.9102 24.748 56.9102 23.478C56.9102 21.6436 55.2251 20.3154 52.8677 20.3154C50.5186 20.3154 48.8169 21.6519 48.8169 23.4697C48.8169 24.7563 49.6719 25.7939 51 26.1592V26.2007C49.4146 26.5327 48.3354 27.7529 48.3354 29.2803C48.3354 31.3057 50.1948 32.7417 52.8677 32.7417ZM52.8677 31.2476C51.3403 31.2476 50.2529 30.3677 50.2529 29.1475C50.2529 27.9189 51.3403 27.0308 52.8677 27.0308C54.395 27.0308 55.4741 27.9106 55.4741 29.1475C55.4741 30.3677 54.395 31.2476 52.8677 31.2476ZM52.8677 25.5366C51.5645 25.5366 50.6597 24.7563 50.6597 23.6689C50.6597 22.5732 51.5645 21.793 52.8677 21.793C54.1626 21.793 55.0757 22.5732 55.0757 23.6689C55.0757 24.7563 54.1543 25.5366 52.8677 25.5366Z" fill="white"/>
<path d="M63.8662 35.7964C65.709 35.7964 66.564 35.0991 67.3359 32.9326L70.7144 23.5029H68.8218L66.5059 30.874H66.4644L64.1484 23.5029H62.2144L65.4849 32.5425L65.3438 33.0073C65.0366 33.9619 64.5635 34.3271 63.7085 34.3271C63.5508 34.3271 63.2686 34.3188 63.1357 34.2856V35.7466C63.2769 35.7715 63.7168 35.7964 63.8662 35.7964Z" fill="white"/>
<path d="M75.313 24.856C76.6245 24.856 77.5127 25.7856 77.5542 27.1885H72.9805C73.0801 25.8022 74.0181 24.856 75.313 24.856ZM77.5459 29.8779C77.2969 30.6665 76.4751 31.1646 75.4292 31.1646C73.9517 31.1646 72.9722 30.1353 72.9722 28.5747V28.4668H79.3555V27.8359C79.3555 25.105 77.7949 23.3867 75.3213 23.3867C72.7979 23.3867 71.1543 25.2212 71.1543 28.0435C71.1543 30.8657 72.7812 32.6255 75.396 32.6255C77.4214 32.6255 79.0068 31.4966 79.2642 29.8779H77.5459Z" fill="white"/>
<path d="M83.9375 31.1729C82.8999 31.1729 82.2275 30.6748 82.2275 29.9028C82.2275 29.106 82.8667 28.6494 84.0952 28.5747L86.2866 28.4253V29.1309C86.2866 30.3179 85.2739 31.1729 83.9375 31.1729ZM83.4561 32.6089C84.6846 32.6089 85.8052 31.9946 86.3032 31.0151H86.3447V32.5176H88.063V26.3335C88.063 24.5488 86.6436 23.3867 84.4438 23.3867C82.4185 23.3867 80.9077 24.5654 80.8579 26.1592H82.543C82.7007 25.3789 83.4146 24.8726 84.394 24.8726C85.5977 24.8726 86.2866 25.437 86.2866 26.4663V27.1636L83.8545 27.3047C81.6299 27.4458 80.4097 28.3589 80.4097 29.936C80.4097 31.5464 81.6548 32.6089 83.4561 32.6089Z" fill="white"/>
<path d="M89.8726 32.5176H91.6738V27.1387C91.6738 25.8687 92.4209 25.0469 93.6079 25.0469C93.9648 25.0469 94.2803 25.0967 94.4297 25.1548V23.4697C94.2886 23.4365 94.0645 23.4116 93.7988 23.4116C92.7363 23.4116 91.9062 24.0176 91.624 25.022H91.5908V23.5029H89.8726V32.5176Z" fill="white"/>
<path d="M95.4341 26.0679C95.4341 27.313 96.2393 28.1431 97.8662 28.5415L99.4766 28.9399C100.423 29.1807 100.78 29.4795 100.78 30.0522C100.78 30.7827 100.074 31.2476 98.9536 31.2476C97.8081 31.2476 97.1108 30.7744 96.9697 29.9111H95.1934C95.3262 31.5381 96.7622 32.6255 98.8623 32.6255C101.045 32.6255 102.573 31.5132 102.573 29.9028C102.573 28.5747 101.9 27.9189 100.083 27.479L98.5884 27.1221C97.6338 26.8896 97.1855 26.5161 97.1855 25.9683C97.1855 25.2544 97.8662 24.7812 98.8872 24.7812C99.9165 24.7812 100.605 25.2793 100.68 26.0762H102.374C102.332 24.5073 100.904 23.395 98.9287 23.395C96.8535 23.395 95.4341 24.4824 95.4341 26.0679Z" fill="white"/>
<path d="M105.345 32.6089C105.959 32.6089 106.433 32.1274 106.433 31.5215C106.433 30.9072 105.959 30.4341 105.345 30.4341C104.739 30.4341 104.258 30.9072 104.258 31.5215C104.258 32.1274 104.739 32.6089 105.345 32.6089Z" fill="white"/>
</svg>
